<?xml version="1.0" encoding="utf-8"?>
<!-- Generator: Adobe Illustrator 25.4.1, SVG Export Plug-In . SVG Version: 6.00 Build 0)  -->
<svg version="1.1" id="Layer_1" xmlns="http://www.w3.org/2000/svg" xmlns:xlink="http://www.w3.org/1999/xlink" x="0px" y="0px"
	 viewBox="0 0 122.5 45.45" style="enable-background:new 0 0 122.5 45.45;" xml:space="preserve">
<style type="text/css">
	.st0{fill:#E9E9E9;}
	.st1{fill:#333333;}
	.st2{fill:#6071B4;}
	.st3{fill:#133E69;}
	.st4{opacity:0.28;}
	.st5{fill:#253785;}
	.st6{opacity:0.28;fill:#253785;}
	.st7{fill:#EAEFFF;}
	.st8{fill:#545465;}
	.st9{fill:#6376DB;}
	.st10{fill:#003D6B;}
	.st11{fill:#28348A;}
	.st12{opacity:0.28;fill:#28348A;}
</style>
<g>
	<g>
		<path class="st0" d="M-514.38-8.18h-274.47c-10.68,0-19.33,8.65-19.33,19.33v19.71c0,10.68,8.65,19.33,19.33,19.33h0
			c1.05,0,2.05,0.42,2.79,1.15l7.84,7.84c1.54,1.54,4.03,1.54,5.57,0l7.84-7.84c0.74-0.74,1.74-1.15,2.79-1.15h247.65
			c10.68,0,19.33-8.65,19.33-19.33V11.15C-495.05,0.47-503.71-8.18-514.38-8.18z"/>
		<g>
			<path class="st1" d="M-719.5,27.21l-1.41-1.43l1.46-1.45l1.41,1.45L-719.5,27.21z M-718.58,22.45h-1.76l-0.2-8.67h2.16
				L-718.58,22.45z"/>
			<path class="st1" d="M-713.12,26.2c-0.2,0-0.4-0.01-0.59-0.03c-0.19-0.02-0.39-0.05-0.59-0.09c-0.2-0.04-0.4-0.08-0.61-0.14
				c-0.21-0.06-0.43-0.12-0.66-0.19l-0.93-0.28l0.57-1.89c0.46,0.16,0.93,0.3,1.42,0.42c0.49,0.12,0.95,0.2,1.39,0.24
				c0.14,0.01,0.28,0.02,0.41,0.02c0.26,0,0.52-0.03,0.79-0.09c0.26-0.06,0.45-0.2,0.56-0.43c0.02-0.04,0.03-0.09,0.03-0.15
				c0-0.04-0.01-0.09-0.03-0.17c-0.02-0.08-0.07-0.18-0.16-0.3l-2.93-4.27l1.65-1.07l0.53,0.82c0,0.01,0.01,0.02,0.03,0.05
				c0.02,0.03,0.06,0.08,0.11,0.17c0.05,0.08,0.13,0.2,0.24,0.36s0.24,0.36,0.4,0.61s0.37,0.56,0.62,0.93
				c0.24,0.37,0.54,0.81,0.88,1.32c0.27,0.4,0.43,0.82,0.5,1.25c0.02,0.11,0.02,0.22,0.02,0.32c0,0.31-0.06,0.62-0.19,0.9
				c-0.09,0.21-0.21,0.4-0.36,0.58c-0.15,0.18-0.32,0.33-0.52,0.47c-0.37,0.26-0.82,0.43-1.34,0.53
				C-712.34,26.16-712.75,26.2-713.12,26.2z"/>
			<path class="st1" d="M-703.14,25.71c-0.03,0.72-0.17,1.37-0.4,1.95c-0.24,0.58-0.56,1.07-0.97,1.48
				c-0.41,0.41-0.91,0.72-1.5,0.94c-0.59,0.22-1.25,0.33-1.99,0.33h-0.97v-1.96h0.97c0.5,0,0.94-0.05,1.3-0.16s0.67-0.27,0.9-0.5
				c0.24-0.23,0.41-0.53,0.53-0.9c0.11-0.37,0.17-0.82,0.17-1.35v-4.78h1.96V25.71z"/>
			<path class="st1" d="M-699.2,26.19h-1.96V14.86h1.96V26.19z"/>
			<path class="st1" d="M-688.26,26.19h-0.64c-0.7,0-1.36-0.31-2-0.92c-0.17,0.2-0.38,0.37-0.62,0.51
				c-0.24,0.13-0.49,0.24-0.77,0.32c-0.27,0.08-0.55,0.13-0.83,0.17c-0.28,0.03-0.55,0.05-0.81,0.05c-0.2,0-0.4-0.01-0.6-0.04
				c-0.2-0.02-0.44-0.06-0.7-0.12s-0.56-0.13-0.89-0.22c-0.34-0.09-0.74-0.21-1.2-0.35l0.57-1.88c0.32,0.13,0.65,0.24,0.99,0.33
				c0.34,0.1,0.67,0.18,1,0.24c0.32,0.06,0.64,0.1,0.94,0.11c0.12,0.01,0.24,0.02,0.35,0.02c0.16,0,0.34-0.01,0.53-0.04
				c0.19-0.03,0.37-0.08,0.53-0.17s0.28-0.2,0.33-0.35c0.03-0.06,0.04-0.12,0.04-0.17c0-0.05-0.01-0.1-0.04-0.17
				c-0.03-0.07-0.07-0.15-0.14-0.25c-0.06-0.1-0.14-0.22-0.24-0.38l-2.79-3.92l1.65-1.06l2.81,4.25c0.15,0.23,0.31,0.47,0.48,0.71
				s0.33,0.47,0.5,0.67c0.17,0.2,0.33,0.37,0.49,0.5c0.16,0.13,0.3,0.2,0.43,0.2h0.64V26.19z"/>
			<path class="st1" d="M-684.03,19.59c0.01,0.04,0.03,0.12,0.07,0.26s0.07,0.3,0.11,0.5c0.04,0.2,0.09,0.42,0.13,0.66
				s0.09,0.48,0.13,0.73c0.04,0.24,0.07,0.48,0.09,0.71c0.02,0.23,0.04,0.43,0.04,0.6c0,0.54-0.09,1.01-0.27,1.4
				c-0.18,0.4-0.41,0.72-0.7,0.98c-0.29,0.26-0.61,0.45-0.97,0.57c-0.36,0.13-0.72,0.19-1.08,0.19h-2.09v-1.96h2.15
				c0.06,0,0.15-0.01,0.27-0.03c0.12-0.02,0.24-0.07,0.35-0.15s0.22-0.2,0.31-0.36c0.09-0.16,0.13-0.38,0.13-0.66
				c0-0.11-0.01-0.26-0.03-0.42c-0.02-0.17-0.04-0.34-0.07-0.53c-0.03-0.19-0.07-0.38-0.11-0.58c-0.04-0.2-0.08-0.38-0.11-0.56
				c-0.04-0.18-0.07-0.33-0.11-0.48s-0.07-0.26-0.09-0.33L-684.03,19.59z M-686.98,16.43l1.41-1.43l1.45,1.45l-1.43,1.43
				L-686.98,16.43z"/>
			<path class="st1" d="M-673.56,26.2c-0.2,0-0.39-0.01-0.59-0.03c-0.2-0.02-0.39-0.05-0.59-0.09s-0.4-0.08-0.61-0.14
				c-0.21-0.06-0.43-0.12-0.66-0.19l-0.93-0.28l0.56-1.89c0.46,0.16,0.93,0.3,1.42,0.42c0.49,0.12,0.95,0.2,1.39,0.24
				c0.14,0.01,0.28,0.02,0.41,0.02c0.26,0,0.53-0.03,0.79-0.09c0.26-0.06,0.45-0.2,0.56-0.43c0.02-0.04,0.03-0.09,0.03-0.15
				c0-0.04-0.01-0.09-0.03-0.17c-0.02-0.08-0.07-0.18-0.16-0.3l-2.93-4.27l1.65-1.07l0.54,0.82c0,0.01,0.01,0.02,0.03,0.05
				c0.02,0.03,0.05,0.08,0.11,0.17c0.05,0.08,0.13,0.2,0.24,0.36s0.24,0.36,0.4,0.61s0.37,0.56,0.62,0.93
				c0.24,0.37,0.54,0.81,0.88,1.32c0.27,0.4,0.43,0.82,0.5,1.25c0.02,0.11,0.02,0.22,0.02,0.32c0,0.31-0.06,0.62-0.19,0.9
				c-0.09,0.21-0.21,0.4-0.36,0.58c-0.15,0.18-0.32,0.33-0.52,0.47c-0.37,0.26-0.82,0.43-1.34,0.53
				C-672.78,26.16-673.19,26.2-673.56,26.2z"/>
			<path class="st1" d="M-667.69,28.46c0.42,0,0.79-0.01,1.12-0.04c0.33-0.03,0.62-0.07,0.87-0.13s0.48-0.13,0.67-0.21
				c0.19-0.09,0.36-0.19,0.5-0.31c0.22-0.18,0.39-0.38,0.5-0.62c0.11-0.24,0.18-0.55,0.2-0.95h-1.21c-0.26,0-0.53-0.02-0.8-0.06
				c-0.27-0.04-0.53-0.11-0.79-0.22s-0.49-0.23-0.71-0.4c-0.22-0.16-0.42-0.36-0.58-0.6s-0.3-0.52-0.39-0.84
				c-0.1-0.32-0.15-0.7-0.15-1.12c0-0.36,0.03-0.68,0.09-0.96c0.06-0.28,0.14-0.53,0.24-0.74c0.1-0.21,0.21-0.4,0.33-0.56
				c0.12-0.16,0.24-0.3,0.35-0.42c0.31-0.31,0.67-0.56,1.07-0.73c0.4-0.17,0.83-0.26,1.29-0.26c0.57,0,1.06,0.1,1.46,0.29
				c0.41,0.2,0.74,0.47,1,0.81c0.26,0.35,0.45,0.76,0.57,1.23s0.18,0.99,0.18,1.54v1.07h1.34v1.96h-1.34
				c-0.02,0.72-0.15,1.32-0.38,1.81s-0.58,0.92-1.04,1.29c-0.24,0.19-0.5,0.35-0.79,0.49c-0.28,0.14-0.6,0.25-0.95,0.35
				c-0.35,0.09-0.74,0.16-1.17,0.21c-0.43,0.04-0.92,0.07-1.46,0.07V28.46z M-665.1,21.24c-0.45,0-0.8,0.14-1.06,0.42
				c-0.26,0.28-0.39,0.71-0.39,1.3c0,0.23,0.05,0.43,0.14,0.59c0.09,0.16,0.21,0.29,0.35,0.4c0.14,0.1,0.31,0.18,0.48,0.22
				c0.18,0.05,0.36,0.07,0.53,0.07h1.21v-1.07c0-0.3-0.02-0.55-0.07-0.77c-0.05-0.21-0.11-0.39-0.18-0.53
				c-0.08-0.14-0.16-0.25-0.26-0.34s-0.19-0.15-0.28-0.19c-0.09-0.04-0.18-0.07-0.26-0.08S-665.05,21.24-665.1,21.24z"/>
			<path class="st1" d="M-650.09,23.07c-0.03,0.02-0.17,0.11-0.41,0.27c-0.24,0.16-0.56,0.36-0.96,0.59
				c-0.4,0.23-0.86,0.48-1.4,0.74s-1.11,0.51-1.73,0.73c-0.62,0.23-1.27,0.41-1.94,0.56c-0.67,0.15-1.35,0.22-2.03,0.22h-2.38v-1.96
				h2.38c0.51,0,1.06-0.05,1.64-0.16c0.58-0.1,1.16-0.24,1.72-0.4c0.57-0.16,1.1-0.35,1.61-0.55s0.96-0.41,1.33-0.6
				c-0.24-0.07-0.5-0.15-0.78-0.24s-0.57-0.17-0.86-0.26c-0.29-0.09-0.58-0.17-0.87-0.25c-0.29-0.08-0.56-0.15-0.81-0.22
				c-0.25-0.06-0.48-0.11-0.68-0.15c-0.2-0.04-0.36-0.05-0.47-0.05c-0.12,0-0.23,0.01-0.32,0.04c-0.09,0.03-0.17,0.08-0.25,0.14
				s-0.14,0.15-0.2,0.26s-0.13,0.23-0.2,0.38l-1.8-0.54c0.1-0.31,0.22-0.61,0.37-0.88c0.14-0.27,0.32-0.51,0.53-0.72
				c0.21-0.2,0.45-0.37,0.72-0.48c0.27-0.12,0.58-0.18,0.93-0.18c0.14,0,0.33,0.03,0.58,0.09c0.25,0.06,0.54,0.13,0.86,0.23
				s0.66,0.2,1.03,0.32c0.36,0.12,0.73,0.25,1.1,0.38c0.37,0.13,0.72,0.26,1.07,0.38s0.66,0.24,0.93,0.34s0.51,0.19,0.7,0.26
				s0.31,0.11,0.36,0.13L-650.09,23.07z M-656.92,28.89l1.41-1.43l1.45,1.45l-1.43,1.43L-656.92,28.89z"/>
			<path class="st1" d="M-647.78,28.46c0.42,0,0.79-0.01,1.12-0.04c0.33-0.03,0.62-0.07,0.87-0.13s0.48-0.13,0.67-0.21
				c0.19-0.09,0.36-0.19,0.5-0.31c0.22-0.18,0.39-0.38,0.5-0.62c0.11-0.24,0.18-0.55,0.2-0.95h-1.21c-0.26,0-0.53-0.02-0.8-0.06
				c-0.27-0.04-0.53-0.11-0.79-0.22s-0.49-0.23-0.71-0.4c-0.22-0.16-0.42-0.36-0.58-0.6s-0.3-0.52-0.39-0.84
				c-0.1-0.32-0.15-0.7-0.15-1.12c0-0.36,0.03-0.68,0.09-0.96c0.06-0.28,0.14-0.53,0.24-0.74c0.1-0.21,0.21-0.4,0.33-0.56
				c0.12-0.16,0.24-0.3,0.35-0.42c0.31-0.31,0.67-0.56,1.07-0.73c0.4-0.17,0.83-0.26,1.29-0.26c0.57,0,1.06,0.1,1.46,0.29
				c0.41,0.2,0.74,0.47,1,0.81c0.26,0.35,0.45,0.76,0.57,1.23s0.18,0.99,0.18,1.54v2.79c0,0.78-0.12,1.44-0.35,1.97
				c-0.24,0.53-0.59,0.99-1.08,1.37c-0.24,0.19-0.5,0.35-0.79,0.49c-0.28,0.14-0.6,0.25-0.95,0.35c-0.35,0.09-0.74,0.16-1.17,0.21
				c-0.43,0.04-0.92,0.07-1.46,0.07V28.46z M-645.19,21.24c-0.45,0-0.8,0.14-1.06,0.42c-0.26,0.28-0.39,0.71-0.39,1.3
				c0,0.23,0.05,0.43,0.14,0.59c0.09,0.16,0.21,0.29,0.35,0.4c0.14,0.1,0.31,0.18,0.48,0.22c0.18,0.05,0.36,0.07,0.53,0.07h1.21
				v-1.07c0-0.3-0.02-0.55-0.07-0.77c-0.05-0.21-0.11-0.39-0.18-0.53c-0.08-0.14-0.16-0.25-0.26-0.34s-0.19-0.15-0.28-0.19
				c-0.09-0.04-0.18-0.07-0.26-0.08S-645.14,21.24-645.19,21.24z"/>
			<path class="st1" d="M-628.28,28.56c0.48,0,0.89-0.03,1.24-0.09c0.35-0.06,0.64-0.17,0.86-0.31c0.23-0.15,0.39-0.35,0.51-0.6
				c0.11-0.25,0.17-0.57,0.18-0.95c-0.07-0.02-0.19-0.05-0.35-0.09c-0.16-0.04-0.35-0.09-0.57-0.15s-0.45-0.12-0.71-0.19
				s-0.51-0.14-0.77-0.21c-0.26-0.07-0.52-0.14-0.77-0.2c-0.25-0.07-0.49-0.12-0.7-0.18c-0.14-0.35-0.24-0.68-0.3-1.01
				s-0.1-0.65-0.1-0.96c0-0.6,0.11-1.16,0.33-1.69c0.22-0.53,0.53-1,0.94-1.39c0.41-0.4,0.91-0.71,1.5-0.94
				c0.59-0.23,1.25-0.35,1.99-0.35c0.26,0,0.52,0.02,0.78,0.06c0.26,0.04,0.55,0.11,0.88,0.2l-0.5,1.89
				c-0.25-0.07-0.46-0.13-0.64-0.16c-0.18-0.03-0.37-0.05-0.57-0.05c-0.39,0-0.76,0.06-1.1,0.17c-0.34,0.11-0.63,0.28-0.88,0.49
				c-0.25,0.21-0.45,0.48-0.59,0.79c-0.14,0.31-0.22,0.66-0.22,1.05c0,0.03,0,0.06,0,0.1c0,0.03,0,0.07,0.01,0.1l2.76,0.71
				c0.5,0.13,0.87,0.34,1.09,0.64s0.34,0.67,0.34,1.12c0,0.73-0.08,1.36-0.25,1.88c-0.17,0.53-0.44,0.96-0.8,1.3
				s-0.85,0.6-1.44,0.76c-0.59,0.17-1.31,0.25-2.15,0.25h-1.66c-0.43,0-0.84-0.05-1.23-0.15s-0.76-0.24-1.11-0.43
				c-0.35-0.19-0.66-0.41-0.95-0.67c-0.29-0.26-0.54-0.56-0.76-0.9c-0.52-0.84-0.78-1.82-0.78-2.95c0-0.35,0.02-0.69,0.07-1.03
				c0.05-0.34,0.12-0.69,0.22-1.05c0.1-0.36,0.23-0.73,0.39-1.13c0.16-0.39,0.35-0.82,0.57-1.27l1.74,0.84
				c-0.18,0.39-0.34,0.74-0.47,1.06c-0.13,0.32-0.24,0.63-0.32,0.91c-0.09,0.29-0.15,0.56-0.19,0.82c-0.04,0.26-0.06,0.53-0.06,0.8
				c0,0.76,0.17,1.4,0.5,1.93c0.24,0.4,0.57,0.7,0.99,0.92c0.42,0.21,0.88,0.32,1.39,0.32H-628.28z"/>
			<path class="st1" d="M-619.13,26.19h-1.96V14.86h1.96V26.19z"/>
			<path class="st1" d="M-608.13,26.19c-0.5,0-0.96-0.07-1.39-0.22c-0.42-0.14-0.78-0.35-1.09-0.61s-0.54-0.58-0.71-0.95
				s-0.25-0.77-0.25-1.22c0-0.44,0.05-0.83,0.17-1.18c0.11-0.35,0.26-0.67,0.44-0.97c0.19-0.3,0.4-0.59,0.65-0.86
				c0.25-0.27,0.51-0.56,0.79-0.85l-0.49-0.56l1.45-1.31c0.06,0.07,0.13,0.14,0.2,0.23s0.16,0.17,0.24,0.26s0.16,0.18,0.24,0.26
				c0.08,0.08,0.15,0.16,0.21,0.23c0.38,0.4,0.75,0.79,1.1,1.17c0.36,0.38,0.68,0.76,0.96,1.14s0.51,0.76,0.68,1.14
				c0.16,0.38,0.24,0.76,0.24,1.16v0.04c0,0.46-0.1,0.87-0.27,1.24c-0.18,0.36-0.44,0.7-0.78,1.01c-0.31,0.27-0.67,0.48-1.07,0.63
				S-607.66,26.19-608.13,26.19z M-608.23,20.53c-0.21,0.24-0.41,0.46-0.59,0.67c-0.19,0.21-0.35,0.42-0.48,0.63
				c-0.13,0.21-0.23,0.42-0.3,0.64c-0.06,0.18-0.09,0.38-0.09,0.6c0,0.04,0,0.09,0.01,0.13c0.02,0.19,0.07,0.36,0.17,0.5
				s0.22,0.25,0.37,0.35c0.15,0.09,0.31,0.16,0.49,0.2c0.18,0.04,0.35,0.06,0.53,0.06c0.2,0,0.39-0.03,0.57-0.09
				c0.18-0.06,0.34-0.14,0.48-0.24c0.14-0.1,0.25-0.23,0.33-0.38s0.13-0.32,0.13-0.5c0-0.23-0.04-0.45-0.13-0.66
				c-0.09-0.21-0.21-0.43-0.36-0.64s-0.32-0.42-0.51-0.63C-607.82,20.95-608.02,20.74-608.23,20.53z"/>
			<path class="st1" d="M-599.98,26.2c-0.2,0-0.4-0.01-0.59-0.03c-0.19-0.02-0.39-0.05-0.59-0.09c-0.2-0.04-0.4-0.08-0.61-0.14
				c-0.21-0.06-0.43-0.12-0.66-0.19l-0.93-0.28l0.57-1.89c0.46,0.16,0.93,0.3,1.42,0.42c0.49,0.12,0.95,0.2,1.39,0.24
				c0.14,0.01,0.28,0.02,0.41,0.02c0.26,0,0.53-0.03,0.79-0.09s0.45-0.2,0.56-0.43c0.02-0.04,0.03-0.09,0.03-0.15
				c0-0.04-0.01-0.09-0.03-0.17c-0.02-0.08-0.07-0.18-0.16-0.3l-2.93-4.27l1.65-1.07l0.53,0.82c0,0.01,0.01,0.02,0.03,0.05
				s0.05,0.08,0.11,0.17c0.05,0.08,0.13,0.2,0.24,0.36c0.1,0.15,0.24,0.36,0.4,0.61c0.17,0.25,0.37,0.56,0.62,0.93
				c0.24,0.37,0.54,0.81,0.88,1.32c0.27,0.4,0.43,0.82,0.5,1.25c0.02,0.11,0.02,0.22,0.02,0.32c0,0.31-0.06,0.62-0.19,0.9
				c-0.09,0.21-0.21,0.4-0.36,0.58c-0.15,0.18-0.32,0.33-0.52,0.47c-0.37,0.26-0.82,0.43-1.34,0.53
				C-599.2,26.16-599.61,26.2-599.98,26.2z"/>
			<path class="st1" d="M-592.43,26.19h-1.96V14.86h1.96V26.19z"/>
			<path class="st1" d="M-586.93,26.2c-0.2,0-0.4-0.01-0.59-0.03c-0.19-0.02-0.39-0.05-0.59-0.09c-0.2-0.04-0.4-0.08-0.61-0.14
				c-0.21-0.06-0.43-0.12-0.66-0.19l-0.93-0.28l0.57-1.89c0.46,0.16,0.93,0.3,1.42,0.42c0.49,0.12,0.95,0.2,1.39,0.24
				c0.14,0.01,0.28,0.02,0.41,0.02c0.26,0,0.53-0.03,0.79-0.09s0.45-0.2,0.56-0.43c0.02-0.04,0.03-0.09,0.03-0.15
				c0-0.04-0.01-0.09-0.03-0.17c-0.02-0.08-0.07-0.18-0.16-0.3l-2.93-4.27l1.65-1.07l0.53,0.82c0,0.01,0.01,0.02,0.03,0.05
				s0.05,0.08,0.11,0.17c0.05,0.08,0.13,0.2,0.24,0.36c0.1,0.15,0.24,0.36,0.4,0.61c0.17,0.25,0.37,0.56,0.62,0.93
				c0.24,0.37,0.54,0.81,0.88,1.32c0.27,0.4,0.43,0.82,0.5,1.25c0.02,0.11,0.02,0.22,0.02,0.32c0,0.31-0.06,0.62-0.19,0.9
				c-0.09,0.21-0.21,0.4-0.36,0.58c-0.15,0.18-0.32,0.33-0.52,0.47c-0.37,0.26-0.82,0.43-1.34,0.53
				C-586.15,26.16-586.56,26.2-586.93,26.2z"/>
		</g>
		<g>
			<g>
				<g>
					<g>
						<path class="st2" d="M-730.32,106.1c-1.11,0.57-2.14,1.28-3.13,2.04c-0.46,0.35-0.81,0.23-1.15-0.16
							c-3.18-3.66-5.6-7.71-6.33-12.6c-0.09-0.63-0.36-0.85-0.94-0.82c-0.2,0.01-0.4,0-0.61,0c-6.2,0-12.39,0-18.59,0
							c-0.24,0-0.49,0-0.73,0.01c-0.37,0.01-0.58,0.11-0.54,0.58c0.38,4.54,2.73,8.38,7.67,9.57c1.1,0.26,2.22,0.4,3.32,0.64
							c0.44,0.09,0.74,0.25,0.93,0.65c0.64,1.31,1.31,2.6,1.93,3.92c0.29,0.62,0.18,0.85-0.49,0.86c-1.74,0-3.47,0.09-5.21-0.1
							c-1.56-0.18-3.13-0.27-4.68-0.55c-5.14-0.93-9.94-2.69-14.49-5.28c-4.4-2.51-8.27-5.66-11.68-9.37
							c-2.44-2.65-4.49-5.59-6.25-8.75c-1.45-2.6-2.51-5.32-3.36-8.15c-0.27-0.88-0.43-1.78-0.55-2.67c0.52-0.24,0.97-0.15,1.4-0.15
							c7.57-0.01,15.15-0.02,22.72,0.01c1,0,1.55-0.19,2-1.22c1.76-3.95,3.68-7.82,5.51-11.74c0.22-0.48,0.51-0.67,1.02-0.67
							c3.69,0.02,7.37,0.01,11.06,0.04c0.92,0.01,1,0.17,0.61,1.02c-1.72,3.79-3.45,7.57-5.18,11.35c-0.07,0.15-0.14,0.29-0.2,0.44
							c-0.23,0.6-0.17,0.7,0.47,0.75c0.24,0.02,0.49,0.01,0.73,0.01c6.16,0,12.31-0.02,18.47,0.03c0.95,0.01,1.46-0.27,1.85-1.15
							c1.36-3.11,2.82-6.17,4.19-9.27c0.36-0.81,0.78-1.6,1.12-2.42c0.25-0.62,0.67-0.81,1.32-0.8c3.36,0.04,6.73-0.11,10.08,0.1
							c3.52,0.22,7.04,0.07,10.55,0.16c0.24,0.01,0.49,0.02,0.73,0c0.55-0.03,0.69,0.15,0.73,0.72c0.08,1.09,0.28,2.23,0.44,3.31
							c0.1,0.64-0.16,0.72-0.66,0.61c-2.18-0.47-4.37-0.74-6.61-0.66c-3.13,0.11-6.15,0.74-9.07,1.9c-4.58,1.83-8.18,4.86-10.9,8.92
							c-1.98,2.96-3.11,6.24-3.5,9.82c-0.74,6.82,1.49,12.7,5.44,18.09c0.14,0.19,0.3,0.38,0.42,0.59
							C-730.37,105.8-730.37,105.93-730.32,106.1z"/>
						<path class="st3" d="M-730.26,106.13c-1.26,0.69-2.22,1.44-3.35,2.27c-0.17,0.09-0.39,0.12-0.59,0.05
							c-0.2-0.07-0.34-0.19-0.47-0.32l-0.67-0.76c-0.43-0.51-0.86-1.03-1.26-1.56c-1.62-2.13-3.01-4.48-3.87-7.06
							c-0.22-0.64-0.41-1.29-0.55-1.96c-0.08-0.33-0.14-0.66-0.2-1c-0.06-0.34-0.1-0.67-0.21-0.77c-0.06-0.1-0.25-0.1-0.63-0.09
							l-1.01,0.01l-2,0.02l-8,0.08l-8,0.06l-0.49,0.01c-0.16,0-0.35,0.01-0.35,0.02c-0.01,0.01,0.07-0.03,0.1-0.09
							c0.03-0.06,0.02-0.07,0.02-0.03c-0.01,0.05,0.02,0.26,0.04,0.4c0.06,0.64,0.19,1.27,0.34,1.88c0.31,1.24,0.85,2.4,1.57,3.41
							c0.73,1.02,1.7,1.84,2.78,2.45c1.1,0.62,2.29,0.96,3.62,1.17l1.96,0.37c0.27,0.05,0.78,0.11,1.21,0.49
							c0.2,0.17,0.36,0.43,0.44,0.6l0.22,0.45c0.6,1.22,1.18,2.34,1.79,3.63c0.04,0.1,0.08,0.22,0.1,0.37
							c0.02,0.14,0.04,0.38-0.1,0.65c-0.15,0.27-0.4,0.4-0.55,0.45c-0.16,0.05-0.29,0.07-0.41,0.08c-0.44,0.02-0.69,0.01-1.04,0.01
							l-2.01,0.01c-0.68-0.01-1.36-0.03-2.05-0.1l-1.99-0.21c-2.68-0.22-5.37-0.8-7.95-1.56c-5.17-1.56-10.03-4.08-14.34-7.3
							c-4.29-3.24-8.08-7.15-11.06-11.62c-2.99-4.44-5.33-9.39-6.22-14.72l-0.02-0.15l0.15-0.07c0.52-0.26,1.12-0.17,1.57-0.17
							l1.5,0l3.01-0.01l6.01-0.01l12.02-0.06c0.49,0,0.95-0.03,1.24-0.26c0.32-0.23,0.48-0.64,0.7-1.11l1.26-2.73l2.51-5.46
							l1.26-2.73c0.12-0.24,0.19-0.42,0.34-0.71c0.14-0.27,0.45-0.59,0.82-0.69c0.18-0.05,0.35-0.07,0.5-0.07l0.38,0l0.75,0
							l6.01-0.03l3.01-0.01l0.75,0c0.25,0.01,0.5-0.02,0.89,0.07c0.1,0.03,0.23,0.07,0.38,0.19c0.15,0.12,0.27,0.36,0.27,0.52
							c0.03,0.33-0.05,0.47-0.09,0.62c-0.1,0.29-0.21,0.51-0.31,0.74l-2.45,5.49l-2.46,5.49c-0.09,0.22-0.21,0.43-0.27,0.62
							c-0.04,0.07-0.01,0.21-0.05-0.03c-0.04-0.15-0.2-0.27-0.22-0.27c-0.04-0.02-0.02-0.01,0.01,0c0.37,0.04,0.89,0.02,1.38,0.02
							l3.01-0.01l12.03-0.03l3-0.01c0.44-0.01,0.68-0.08,0.84-0.26c0.09-0.1,0.18-0.25,0.26-0.43l0.3-0.68l2.46-5.49
							c0.83-1.83,1.65-3.65,2.5-5.45c0.1-0.23,0.28-0.64,0.62-0.91c0.34-0.29,0.78-0.41,1.11-0.43c0.36-0.03,0.57-0.01,0.83-0.01
							l0.75,0l3-0.01c2-0.01,4.04-0.01,6.06,0.12c1.97,0.12,3.96,0.12,5.97,0.12l3.01,0.01l1.5,0.03l0.77,0
							c0.18,0.01,0.46,0.02,0.77,0.25c0.31,0.25,0.4,0.56,0.44,0.74l0.4,3.04l0.1,0.78c0,0.18,0.04,0.39-0.13,0.76
							c-0.09,0.18-0.29,0.37-0.49,0.44c-0.2,0.08-0.34,0.08-0.46,0.09c-0.47-0.03-0.62-0.11-0.88-0.15l-0.72-0.14
							c-3.84-0.76-7.83-0.55-11.61,0.5c-3.78,1.04-7.31,2.95-10.1,5.71c-2.8,2.74-5.01,6.14-6.03,9.95
							c-1.05,3.8-1.11,7.87-0.17,11.72c0.48,1.92,1.21,3.79,2.11,5.56c0.47,0.88,0.95,1.75,1.5,2.59c0.26,0.42,0.55,0.84,0.83,1.25
							l0.43,0.62c0.07,0.11,0.14,0.2,0.21,0.32C-730.29,105.87-730.28,105.92-730.26,106.13z M-730.39,106.07
							c-0.04-0.03-0.05-0.23-0.09-0.3c-0.06-0.09-0.14-0.2-0.21-0.29l-0.44-0.6c-0.3-0.4-0.6-0.81-0.87-1.23
							c-0.57-0.83-1.09-1.69-1.59-2.57c-0.97-1.77-1.77-3.64-2.32-5.59c-1.1-3.91-1.12-8.11-0.12-12.06
							c2.01-7.97,8.65-14.48,16.58-16.64c3.92-1.15,8.15-1.43,12.19-0.68l0.75,0.14c0.24,0.05,0.56,0.12,0.6,0.11
							c0,0-0.01-0.01-0.09,0.02c-0.08,0.03-0.18,0.12-0.22,0.2c-0.06,0.14-0.02,0.09-0.04,0.02l-0.1-0.71l-0.39-2.92
							c-0.01-0.06-0.02,0.01,0.09,0.1c0.11,0.07,0.13,0.05,0.06,0.05l-0.74,0l-1.5-0.02l-3,0c-2,0.01-4.02,0.01-6.05-0.11
							c-1.98-0.12-3.96-0.12-5.96-0.11l-3.01,0.02l-0.76,0c-0.24,0-0.54-0.01-0.68,0c-0.33,0.07-0.27,0.01-0.47,0.42
							c-0.86,1.83-1.68,3.66-2.5,5.49l-2.5,5.47l-0.31,0.69c-0.12,0.27-0.28,0.56-0.53,0.83c-0.25,0.27-0.61,0.49-0.95,0.59
							c-0.35,0.11-0.66,0.12-0.95,0.13l-3.02-0.01l-12.02-0.06l-3-0.02c-0.5-0.02-1,0.03-1.62-0.06c-0.09-0.02-0.19-0.04-0.35-0.11
							c-0.14-0.05-0.4-0.26-0.47-0.53c-0.1-0.49,0.03-0.6,0.05-0.77c0.09-0.28,0.22-0.52,0.33-0.76l2.53-5.45l2.54-5.45
							c0.1-0.23,0.22-0.46,0.29-0.64c0.04-0.08,0.04-0.19,0.04-0.11c0,0.03,0.05,0.16,0.11,0.19c0.05,0.04,0.07,0.04,0.05,0.03
							c-0.1-0.03-0.35-0.04-0.6-0.04l-0.75-0.01l-3-0.03l-6.01-0.07l-0.75-0.01l-0.37,0c-0.1,0-0.18,0.01-0.24,0.03
							c-0.12,0.03-0.19,0.09-0.29,0.26c-0.09,0.15-0.21,0.43-0.31,0.64l-1.3,2.71l-2.6,5.42l-1.3,2.71c-0.21,0.42-0.42,1-0.94,1.37
							c-0.54,0.37-1.15,0.36-1.64,0.36l-12.02-0.08l-6.01-0.02L-792.2,76l-1.5-0.01c-0.53-0.01-0.99-0.08-1.39,0.12l0.12-0.22
							c0.15,1.32,0.5,2.57,0.93,3.84c0.42,1.26,0.89,2.5,1.42,3.71c1.05,2.43,2.42,4.71,3.9,6.91c3.01,4.36,6.84,8.13,11.11,11.22
							c4.29,3.08,9.1,5.42,14.15,6.87c2.54,0.73,5.09,1.27,7.73,1.47l1.99,0.19c0.64,0.06,1.29,0.08,1.95,0.08l1.99-0.02l0.95-0.02
							c0.12,0.02,0.12-0.1-0.08,0.14c-0.09,0.26-0.01,0.15-0.08,0.06l-1.72-3.55c-0.41-0.79-0.21-0.69-0.99-0.86l-1.97-0.39
							c-1.29-0.2-2.71-0.61-3.93-1.32c-1.23-0.7-2.33-1.65-3.15-2.81c-0.81-1.16-1.4-2.46-1.73-3.82c-0.16-0.68-0.29-1.36-0.35-2.05
							c-0.01-0.18-0.05-0.3-0.04-0.59c0.01-0.13,0.03-0.31,0.16-0.51c0.13-0.2,0.35-0.33,0.5-0.37c0.32-0.08,0.48-0.05,0.65-0.06
							l0.51,0l8,0.06l8,0.08l2,0.02l0.99,0.01c0.26,0.02,0.85-0.09,1.23,0.38c0.32,0.44,0.28,0.83,0.35,1.13
							c0.05,0.32,0.1,0.65,0.18,0.97c0.13,0.64,0.3,1.27,0.49,1.9c0.75,2.52,2.03,4.86,3.56,7.02c0.38,0.54,0.79,1.07,1.2,1.59
							c0.43,0.45,0.8,1.27,1.34,0.99C-732.7,107.44-731.52,106.58-730.39,106.07z"/>
					</g>
					<g>
						<path class="st2" d="M-712.56,70.19c2.03-0.13,3.97,0.19,5.9,0.68c0.9,0.23,0.91,0.3,0.85,1.24
							c-0.08,1.25-0.23,2.48-0.48,3.71c-0.14,0.67-0.37,0.71-0.99,0.59c-1.66-0.34-3.33-0.63-5.04-0.56
							c-3.98,0.16-7.54,1.41-10.35,4.31c-2.19,2.26-3.49,4.96-3.89,8.15c-0.53,4.24,0.7,7.88,3.36,11.12
							c1.03,1.25,1.03,1.25-0.25,2.2c-0.9,0.68-1.79,1.38-2.7,2.05c-0.46,0.34-0.82,0.41-1.32-0.13c-2.87-3.05-4.55-6.68-5.14-10.76
							c-0.84-5.77,0.63-11.01,4.3-15.52c2.84-3.48,6.55-5.7,11-6.62C-715.75,70.32-714.16,70.08-712.56,70.19z"/>
						<path class="st3" d="M-712.56,70.12c1.09-0.08,2.2-0.02,3.29,0.12c1.11,0.14,2.14,0.32,3.27,0.64
							c0.15,0.05,0.33,0.22,0.38,0.41c0.05,0.18,0.05,0.33,0.05,0.47l-0.02,0.83c-0.02,0.55-0.06,1.1-0.11,1.66
							c-0.05,0.55-0.13,1.1-0.22,1.65c-0.03,0.15-0.06,0.31-0.15,0.5c-0.08,0.19-0.34,0.43-0.59,0.46c-0.46,0.06-0.7-0.04-0.97-0.07
							c-1.07-0.17-2.14-0.3-3.2-0.35c-1.05-0.05-2.1,0.04-3.15,0.18c-2.09,0.29-4.12,0.93-5.91,2.02
							c-3.59,2.14-6.21,6.08-6.52,10.41c-0.2,2.15,0.15,4.34,1.01,6.31c0.42,0.99,0.97,1.92,1.61,2.78
							c0.32,0.43,0.66,0.84,1.02,1.26c0.18,0.22,0.36,0.42,0.54,0.71c0.08,0.15,0.18,0.39,0.12,0.66c-0.07,0.26-0.21,0.41-0.32,0.53
							c-0.9,0.8-1.72,1.41-2.58,2.12l-0.64,0.52c-0.2,0.15-0.43,0.4-0.9,0.52c-0.24,0.05-0.53,0.02-0.73-0.08
							c-0.21-0.1-0.36-0.22-0.49-0.33c-0.24-0.24-0.4-0.42-0.6-0.63c-1.52-1.66-2.77-3.59-3.63-5.68c-1.7-4.19-2.13-8.92-0.92-13.34
							c1.26-4.38,4.03-8.28,7.76-10.81c1.86-1.26,3.94-2.17,6.08-2.71c1.08-0.26,2.15-0.47,3.24-0.62
							C-714.76,70.12-713.65,70.03-712.56,70.12z M-712.56,70.27c-2.18-0.12-4.36,0.35-6.42,1c-2.05,0.69-3.98,1.73-5.63,3.08
							c-1.66,1.35-3.05,2.97-4.22,4.74c-1.17,1.76-2.08,3.69-2.62,5.72c-0.55,2.03-0.74,4.14-0.61,6.25
							c0.11,2.11,0.54,4.21,1.31,6.18c0.77,1.96,1.85,3.81,3.23,5.44l0.51,0.58c0.16,0.15,0.22,0.17,0.24,0.16
							c0.07,0,0.27-0.12,0.5-0.3l0.67-0.48c0.86-0.63,1.83-1.29,2.61-1.89c0.09-0.07,0.12-0.14,0.13-0.15
							c0.01,0,0.01-0.04-0.03-0.13c-0.09-0.18-0.26-0.4-0.43-0.61c-0.33-0.43-0.67-0.88-0.98-1.35c-0.61-0.93-1.15-1.91-1.57-2.94
							c-0.84-2.07-1.16-4.33-1.01-6.54c0.15-2.21,0.71-4.43,1.8-6.41c1.1-1.97,2.64-3.7,4.54-4.98c1.9-1.28,4.14-2.02,6.39-2.27
							c1.12-0.13,2.26-0.19,3.4-0.06c1.13,0.1,2.22,0.35,3.29,0.61c0.26,0.07,0.56,0.14,0.65,0.13c0.02-0.01-0.01,0.04,0.03-0.02
							c0.04-0.06,0.07-0.16,0.1-0.28c0.13-0.52,0.24-1.05,0.34-1.58c0.09-0.53,0.17-1.07,0.24-1.61l0.08-0.81
							c0.01-0.13,0.02-0.26,0-0.35c-0.02-0.08-0.05-0.13-0.15-0.18C-708.16,70.54-710.39,70.14-712.56,70.27z"/>
					</g>
					<g>
						<path class="st2" d="M-711.9,79.65c1.13-0.08,2.27,0.15,3.39,0.5c1.04,0.33,1.11,0.52,0.69,1.47
							c-0.41,0.92-0.82,1.85-1.25,2.76c-0.62,1.3-0.63,1.3-1.99,0.91c-1.07-0.31-2.14-0.28-3.21,0.03c-1.78,0.51-2.66,1.86-2.96,3.5
							c-0.35,1.92-0.02,3.8,1.39,5.31c0.46,0.5,0.49,0.84-0.01,1.3c-0.86,0.8-1.66,1.66-2.5,2.47c-0.63,0.61-0.71,0.61-1.28,0.03
							c-1.95-1.99-3.33-4.31-3.5-7.13c-0.17-2.76,0.79-5.24,2.61-7.33C-718.6,81.26-715.17,79.46-711.9,79.65z"/>
						<path class="st3" d="M-711.9,79.58c1.2-0.09,2.41,0.15,3.59,0.43c0.29,0.1,0.63,0.1,0.92,0.52c0.19,0.49-0.01,0.8-0.08,1.09
							l-0.62,1.7c-0.22,0.57-0.39,1.13-0.65,1.7c-0.07,0.15-0.13,0.29-0.24,0.47c-0.1,0.16-0.25,0.4-0.58,0.54
							c-0.32,0.13-0.59,0.09-0.78,0.07c-0.19-0.03-0.35-0.07-0.5-0.11c-0.62-0.17-1.06-0.27-1.61-0.29
							c-0.53-0.01-1.06,0.04-1.6,0.17c-1.04,0.21-1.93,0.85-2.43,1.84c-0.5,0.98-0.71,2.19-0.58,3.33c0.13,1.15,0.66,2.21,1.51,3.05
							c0.11,0.13,0.22,0.27,0.28,0.47c0.07,0.2,0.04,0.45-0.05,0.63c-0.19,0.37-0.44,0.54-0.62,0.77l-1.22,1.32
							c-0.43,0.45-0.75,0.87-1.27,1.35c-0.08,0.06-0.17,0.13-0.33,0.2c-0.15,0.07-0.41,0.07-0.57,0c-0.3-0.13-0.41-0.26-0.54-0.36
							c-0.24-0.22-0.45-0.43-0.67-0.66c-0.86-0.89-1.64-1.89-2.22-3.03c-1.19-2.26-1.5-5.02-0.75-7.51c0.77-2.47,2.43-4.61,4.6-5.88
							C-716.76,80.11-714.3,79.46-711.9,79.58z M-711.9,79.72c-2.41-0.13-4.7,0.97-6.45,2.44c-1.74,1.49-3.08,3.42-3.68,5.54
							c-0.6,2.11-0.47,4.46,0.49,6.48c0.48,1.01,1.11,1.97,1.85,2.86c0.18,0.22,0.38,0.44,0.57,0.65c0.08,0.1,0.19,0.18,0.17,0.18
							c-0.02-0.01-0.12-0.01-0.13,0.01c-0.02,0.01,0.02,0,0.06-0.03c0.39-0.29,0.88-0.76,1.32-1.14l1.34-1.2
							c0.22-0.21,0.47-0.39,0.57-0.56c0.1-0.15,0.04-0.32-0.13-0.54c-0.81-0.88-1.43-2.07-1.6-3.29c-0.1-0.61-0.11-1.24-0.07-1.86
							c0.04-0.62,0.15-1.25,0.38-1.86c0.43-1.23,1.55-2.29,2.84-2.67c0.62-0.19,1.28-0.32,1.95-0.3c0.65,0,1.38,0.17,1.91,0.35
							c0.25,0.09,0.58,0.12,0.48,0.12c-0.08,0.1,0.15-0.14,0.26-0.38l0.85-1.56l0.86-1.57c0.13-0.25,0.25-0.54,0.21-0.63
							c-0.02-0.12-0.33-0.28-0.58-0.38C-709.52,79.93-710.7,79.65-711.9,79.72z"/>
					</g>
				</g>
				<g>
					<g>
						<path class="st2" d="M-859.08,59.18c-1.06-1.83-2.11-3.42-2.92-5.13c-0.81-1.7-1.5-3.47-2.07-5.28
							c-0.94-2.98-1.57-6.01-1.91-9.1c-0.49-4.37-0.36-8.72,0.37-13.04c1.17-6.88,3.71-13.19,7.96-18.78
							c1.57-2.07,3.37-3.91,5.32-5.6c0.63-0.54,0.78-0.54,1.19,0.19c0.7,1.27,1.58,2.45,2.03,3.86c0.11,0.34,0.34,0.64,0.52,0.96
							c1.99,3.48,4,6.95,5.97,10.44c0.89,1.58,1.58,3.27,2.53,4.83c0.39,0.64,0.8,0.89,1.55,0.82c2.82-0.26,5.64-0.47,8.46-0.69
							c1.53-0.12,3.06-0.22,4.59-0.36c0.64-0.06,1.06,0.13,1.39,0.71c1.72,3.03,3.48,6.03,5.21,9.06c0.46,0.8,0.37,0.97-0.53,1.06
							c-3.54,0.33-7.08,0.64-10.62,0.96c-0.72,0.06-1.45,0.04-2.14,0.32c-0.07,0.58,0.15,1.04,0.41,1.5
							c0.43,0.74,0.84,1.48,1.27,2.21c2.19,3.78,4.07,7.73,6.3,11.49c0.49,0.83,0.76,1.78,1.27,2.61c0.31,0.51,0.62,0.74,1.25,0.7
							c2.62-0.18,5.24-0.33,7.86-0.46c1.94-0.1,3.88-0.15,5.81-0.28c0.72-0.05,1,0.36,1.29,0.87c1.53,2.67,3.07,5.33,4.61,8
							c1.94,3.37,3.89,6.73,5.83,10.1c0.6,1.04,0.59,1.05-0.45,1.66c-0.8,0.47-1.64,0.89-2.4,1.42c-0.58,0.4-0.8,0.13-0.97-0.35
							c-0.32-0.91-0.63-1.83-0.99-2.73c-1.1-2.73-2.71-5.12-4.68-7.3c-2.49-2.75-5.43-4.85-8.87-6.16
							c-5.48-2.1-11.01-2.28-16.54-0.09c-4.48,1.77-8.05,4.67-10.93,8.51c-1.37,1.82-2.54,3.75-3.51,5.79
							c-0.3,0.63-0.62,0.65-1.11,0.35c-0.97-0.58-1.92-1.21-2.91-1.74c-0.45-0.24-0.41-0.51-0.32-0.89
							c0.28-1.14,0.68-2.24,1.17-3.31c1.57-3.45,3.99-6.24,6.83-8.69c0.5-0.43,0.59-0.66,0.15-1.25c-0.74-1-1.32-2.13-1.95-3.21
							c-2.48-4.27-4.96-8.55-7.44-12.82c-0.14-0.25-0.29-0.49-0.43-0.74c-0.21-0.39-0.48-0.49-0.89-0.27
							c-1.73,0.92-3.08,2.23-3.98,3.95c-1.46,2.8-1.19,5.7-0.27,8.59c0.16,0.5,0.29,1.03,0.57,1.46c0.65,0.99,0.41,1.8-0.29,2.63
							C-857.32,56.95-858.11,57.97-859.08,59.18z"/>
						<path class="st3" d="M-859.08,59.26c-0.25-0.31-0.4-0.62-0.58-0.89l-0.53-0.85l-1.05-1.72c-0.69-1.15-1.28-2.37-1.81-3.6
							c-1.07-2.47-1.88-5.05-2.49-7.68c-1.18-5.26-1.49-10.73-0.84-16.1c0.64-5.37,2.21-10.65,4.75-15.45
							c1.28-2.4,2.78-4.67,4.52-6.77c0.87-1.05,1.81-2.04,2.79-2.98c0.49-0.47,0.99-0.93,1.5-1.38c0.13-0.11,0.26-0.23,0.45-0.36
							c0.1-0.07,0.21-0.14,0.4-0.2c0.19-0.07,0.56-0.05,0.75,0.09c0.37,0.26,0.43,0.44,0.55,0.61l0.25,0.45
							c0.64,1.13,1.45,2.28,1.9,3.67c0.06,0.21,0.22,0.44,0.41,0.76l0.5,0.88l0.99,1.75l3.97,6.98c0.67,1.14,1.29,2.4,1.86,3.59
							c0.29,0.6,0.58,1.19,0.9,1.76c0.16,0.29,0.32,0.58,0.47,0.75c0.16,0.18,0.3,0.25,0.53,0.28c0.21,0.03,0.57-0.02,0.91-0.04
							l1-0.07l2-0.14l4.01-0.29l4-0.27l1-0.07c0.32-0.01,0.68-0.09,1.12,0.01c0.44,0.09,0.8,0.43,0.99,0.76l0.5,0.89l3.94,7
							c0.33,0.61,0.67,1.11,0.98,1.8c0.03,0.09,0.07,0.2,0.07,0.35c0.01,0.15-0.1,0.35-0.23,0.42c-0.24,0.14-0.42,0.15-0.6,0.18
							l-1.01,0.09l-4,0.34l-4,0.34l-2,0.17c-0.68,0.04-1.33,0.05-1.91,0.29l0.13-0.18c-0.06,0.43,0.1,0.86,0.34,1.27l0.74,1.28
							l1.48,2.58c0.97,1.73,1.89,3.49,2.83,5.23c0.93,1.76,1.9,3.44,2.91,5.19c0.23,0.46,0.41,0.92,0.62,1.36
							c0.21,0.42,0.44,0.9,0.72,1.11c0.14,0.1,0.3,0.14,0.51,0.14l0.72-0.05l1.48-0.1l5.93-0.4l2.96-0.17l1.48-0.08l0.74-0.04
							c0.25,0,0.47-0.05,0.82-0.02c0.33,0.03,0.7,0.22,0.91,0.46c0.22,0.24,0.35,0.48,0.48,0.69l0.75,1.28l1.5,2.56l3.01,5.12
							l3.01,5.12l1.51,2.56l0.75,1.28c0.13,0.22,0.26,0.41,0.39,0.74c0.06,0.15,0.16,0.44,0.04,0.8c-0.14,0.33-0.33,0.45-0.45,0.56
							c-0.5,0.35-0.88,0.55-1.31,0.81l-1.25,0.75l-0.71,0.43c-0.17,0.08-0.42,0.19-0.79,0.12c-0.37-0.08-0.59-0.36-0.69-0.52
							c-0.21-0.37-0.24-0.58-0.34-0.81l-0.25-0.69c-0.63-1.88-1.42-3.61-2.48-5.23c-2.11-3.22-4.9-6.05-8.22-7.96
							c-1.66-0.96-3.45-1.67-5.31-2.19c-1.85-0.52-3.76-0.81-5.67-0.84c-3.82-0.08-7.63,0.98-10.98,2.85
							c-3.36,1.86-6.19,4.6-8.4,7.78c-0.56,0.79-1.08,1.61-1.57,2.45c-0.24,0.42-0.48,0.84-0.7,1.27l-0.33,0.65
							c-0.12,0.22-0.17,0.4-0.39,0.75c-0.11,0.15-0.26,0.35-0.55,0.5c-0.3,0.15-0.66,0.13-0.87,0.06c-0.22-0.06-0.37-0.15-0.51-0.23
							l-0.32-0.19l-1.26-0.76l-1.26-0.76c-0.1-0.06-0.31-0.17-0.49-0.36c-0.19-0.19-0.32-0.55-0.31-0.8
							c0.03-0.49,0.12-0.64,0.18-0.91c1.11-3.98,3.47-7.47,6.37-10.27c0.36-0.35,0.73-0.7,1.11-1.03l0.57-0.5
							c0.2-0.17,0.37-0.32,0.38-0.36c0-0.01-0.01,0.08-0.01,0.07c0-0.01-0.03-0.08-0.08-0.16l-0.42-0.6
							c-0.29-0.43-0.55-0.87-0.79-1.3l-2.93-5.17l-2.93-5.17l-1.46-2.59l-0.73-1.29l-0.37-0.65c-0.13-0.23-0.24-0.44-0.28-0.44
							c0.06-0.1-0.56,0.22-0.93,0.46c-0.4,0.25-0.79,0.53-1.15,0.84c-0.72,0.62-1.34,1.36-1.82,2.18c-0.98,1.64-1.38,3.6-1.2,5.53
							c0.09,0.97,0.28,1.93,0.55,2.87c0.14,0.47,0.26,0.97,0.44,1.39c0.17,0.39,0.55,0.87,0.56,1.42c0.05,0.55-0.2,1.07-0.51,1.47
							l-0.97,1.18L-859.08,59.26z M-859.07,59.11l1.78-2.34c0.53-0.77,1.39-1.5,1.29-2.43c-0.03-0.47-0.32-0.8-0.58-1.29
							c-0.22-0.48-0.34-0.95-0.5-1.42c-0.31-0.95-0.54-1.93-0.66-2.94c-0.24-2,0.09-4.13,1.12-5.92c0.5-0.9,1.15-1.71,1.92-2.4
							c0.38-0.34,0.79-0.66,1.22-0.94c0.21-0.14,0.43-0.27,0.66-0.4c0.19-0.11,0.63-0.36,1.09-0.1c0.2,0.12,0.32,0.27,0.4,0.41
							l0.2,0.33l0.38,0.63l0.76,1.28l1.52,2.55l3.04,5.11l3.01,5.13c0.25,0.42,0.5,0.83,0.77,1.22l0.44,0.61
							c0.08,0.13,0.18,0.28,0.24,0.51c0.07,0.22,0.04,0.58-0.09,0.78c-0.23,0.4-0.48,0.54-0.64,0.71l-0.54,0.49
							c-0.36,0.33-0.71,0.66-1.05,1.01c-2.75,2.72-4.92,6.06-5.9,9.75c-0.06,0.21-0.13,0.53-0.12,0.54c0.01,0-0.03-0.11-0.05-0.12
							c0-0.01,0.01,0,0.12,0.07l1.29,0.76l1.29,0.76l0.32,0.19c0.08,0.05,0.15,0.08,0.16,0.08c0.02,0-0.07-0.01-0.14,0.02
							c-0.07,0.03-0.05,0.04-0.02-0.01c0.05-0.07,0.18-0.35,0.29-0.57l0.34-0.68c0.23-0.45,0.48-0.89,0.73-1.33
							c0.5-0.88,1.05-1.73,1.63-2.56c2.3-3.32,5.29-6.25,8.87-8.24c3.55-1.99,7.63-3.16,11.74-3.08c2.05,0.04,4.09,0.37,6.05,0.94
							c1.95,0.56,3.86,1.33,5.63,2.37c3.55,2.07,6.44,5.07,8.64,8.48c1.1,1.7,1.95,3.62,2.56,5.5l0.25,0.71
							c0.08,0.23,0.18,0.51,0.22,0.57c0.03,0.04-0.01-0.03-0.13-0.07c-0.12-0.02-0.12,0.01-0.07-0.01l0.56-0.33l1.31-0.76
							c0.42-0.25,0.92-0.52,1.23-0.73l-5.42-9.54l-2.93-5.17l-1.46-2.59l-0.73-1.29c-0.25-0.46-0.43-0.72-0.72-0.74
							c-0.14-0.02-0.42,0.01-0.66,0.01l-0.74,0.03l-1.49,0.06l-2.97,0.12l-5.93,0.3l-1.48,0.08l-0.76,0.03
							c-0.28,0.01-0.63-0.07-0.88-0.28c-0.49-0.42-0.65-0.9-0.89-1.36c-0.21-0.46-0.38-0.92-0.59-1.36
							c-0.93-1.69-1.94-3.45-2.85-5.2c-0.93-1.75-1.84-3.51-2.79-5.24l-1.46-2.58l-0.74-1.29c-0.25-0.43-0.47-0.99-0.39-1.55
							l0.02-0.13l0.12-0.05c0.68-0.27,1.39-0.27,2.04-0.33l2-0.19l4-0.38l4-0.38l0.99-0.1c0.15-0.02,0.31-0.06,0.36-0.09
							c0.02-0.02-0.01,0.02,0,0c0-0.02-0.01-0.08-0.04-0.14c-0.24-0.53-0.65-1.14-0.96-1.71l-4.07-6.93l-0.5-0.85
							c-0.15-0.24-0.33-0.38-0.55-0.43c-0.22-0.06-0.53,0-0.88,0.02l-1,0.09l-4,0.36l-4,0.37l-2,0.18l-1,0.09
							c-0.34,0.02-0.64,0.09-1.1,0.06c-0.44-0.02-0.94-0.28-1.21-0.61c-0.29-0.33-0.44-0.64-0.62-0.93c-0.35-0.59-0.66-1.2-0.97-1.8
							c-0.6-1.22-1.2-2.34-1.89-3.5l-4.01-6.95l-1-1.74l-0.5-0.86c-0.15-0.25-0.39-0.58-0.53-1.01c-0.38-1.16-1.13-2.24-1.82-3.42
							l-0.24-0.43c-0.06-0.12-0.18-0.23-0.09-0.16c0.05,0.05,0.24,0.06,0.27,0.03c0.03-0.01,0,0-0.04,0.03
							c-0.09,0.06-0.21,0.16-0.33,0.27c-0.5,0.43-0.99,0.87-1.47,1.32c-0.96,0.91-1.87,1.86-2.72,2.86
							c-1.69,2.01-3.17,4.22-4.43,6.53c-2.53,4.64-4.04,9.79-4.8,15.03c-0.74,5.25-0.54,10.62,0.51,15.83
							c0.52,2.61,1.23,5.18,2.21,7.66c0.49,1.24,1.03,2.46,1.67,3.62l0.99,1.74l0.5,0.87C-859.34,58.58-859.16,58.85-859.07,59.11z"
							/>
					</g>
					<g>
						<path class="st2" d="M-805.62,70.56c0.94,1.39,1.69,2.99,2.17,4.72c0.28,1.01,0.23,1.07-0.71,1.55
							c-1.19,0.61-2.41,1.14-3.67,1.56c-0.83,0.28-0.9,0.26-1.08-0.55c-0.4-1.76-1.15-3.36-2.12-4.86c-2.11-3.26-5.01-5.38-8.81-6.3
							c-2.3-0.55-4.57-0.58-6.83,0.07c-1.71,0.49-3.29,1.25-4.73,2.36c-2.46,1.91-4.2,4.33-5.43,7.15c-0.1,0.22-0.2,0.44-0.3,0.66
							c-0.2,0.44-0.51,0.58-0.97,0.38c-1.3-0.55-2.61-1.07-3.92-1.61c-0.62-0.26-0.67-0.73-0.49-1.31c0.71-2.34,1.77-4.51,3.21-6.49
							c2.1-2.88,4.9-4.92,8.09-6.39c3.26-1.5,6.73-1.94,10.29-1.52c5.03,0.6,9.2,2.88,12.63,6.55
							C-807.21,67.69-806.4,69.05-805.62,70.56z"/>
						<path class="st3" d="M-805.55,70.52c0.62,0.91,1.15,1.9,1.58,2.92c0.22,0.51,0.42,1.03,0.58,1.56
							c0.08,0.27,0.17,0.52,0.23,0.82c0.03,0.14,0.05,0.32-0.03,0.5c-0.08,0.18-0.22,0.29-0.34,0.38c-0.97,0.61-1.95,1.09-2.98,1.55
							c-0.52,0.22-1.01,0.43-1.57,0.63c-0.16,0.03-0.3,0.13-0.65,0.03c-0.37-0.16-0.43-0.44-0.49-0.57
							c-0.11-0.32-0.16-0.56-0.24-0.81c-1.36-4.02-4.19-7.64-8.02-9.41c-1.91-0.89-4.04-1.44-6.18-1.44c-2.13,0-4.29,0.61-6.18,1.66
							c-1.88,1.08-3.48,2.65-4.73,4.42c-0.63,0.88-1.17,1.84-1.61,2.83l-0.66,1.52c-0.07,0.15-0.17,0.32-0.34,0.46
							c-0.17,0.14-0.43,0.22-0.63,0.2c-0.44-0.05-0.64-0.2-0.91-0.28l-3.1-1.17l-0.39-0.15c-0.15-0.06-0.34-0.15-0.51-0.29
							c-0.37-0.29-0.49-0.85-0.43-1.2c0.05-0.39,0.15-0.63,0.23-0.9l0.26-0.81c0.74-2.14,1.8-4.18,3.19-5.99
							c1.4-1.82,3.13-3.36,5.05-4.59c1.91-1.22,4.01-2.21,6.25-2.75c4.48-1.04,9.27-0.49,13.32,1.56c2.02,1.02,3.84,2.38,5.41,3.95
							c0.77,0.79,1.56,1.6,2.18,2.52C-806.6,68.57-806.05,69.54-805.55,70.52z M-805.68,70.59c-0.53-0.97-1.07-1.93-1.73-2.81
							c-0.66-0.87-1.44-1.64-2.28-2.35c-1.67-1.42-3.53-2.59-5.53-3.38c-2-0.81-4.11-1.25-6.24-1.42c-2.13-0.16-4.27-0.04-6.32,0.49
							c-2.05,0.49-3.99,1.43-5.82,2.53c-1.82,1.11-3.45,2.51-4.79,4.16c-1.32,1.67-2.4,3.54-3.18,5.55l-0.28,0.76
							c-0.08,0.26-0.19,0.53-0.21,0.69c-0.02,0.19-0.01,0.23,0.05,0.31c0.04,0.04,0.1,0.08,0.2,0.13l0.38,0.17l3.02,1.35
							c0.25,0.1,0.54,0.25,0.65,0.26c0.11,0.01,0.18-0.02,0.29-0.22l0.73-1.48c0.52-0.99,1.1-1.95,1.76-2.85
							c1.33-1.8,2.98-3.36,4.9-4.52c1.93-1.13,4.11-1.9,6.39-2.06c2.28-0.14,4.56,0.28,6.69,1.14c2.12,0.89,4.02,2.35,5.43,4.16
							c1.42,1.8,2.48,3.87,2.98,6.11l0.17,0.79c0.02,0.12,0.07,0.13-0.02,0.08c-0.08,0,0.06,0.01,0.16-0.03
							c0.49-0.13,1.04-0.3,1.54-0.48c1.02-0.36,2.06-0.79,3-1.27c0.48-0.17,0.2-0.78,0.08-1.31c-0.14-0.53-0.31-1.05-0.51-1.56
							C-804.55,72.48-805.07,71.51-805.68,70.59z"/>
					</g>
					<g>
						<path class="st2" d="M-829.11,71.66c4.71-2.64,8.34-2.21,11.84,0.18c2.57,1.75,4.06,4.21,4.58,7.26
							c0.14,0.8,0.13,0.82-0.66,0.9c-1.16,0.12-2.33,0.21-3.5,0.33c-0.63,0.07-0.96-0.08-1.02-0.81c-0.13-1.55-0.95-2.7-2.26-3.52
							c-2.26-1.42-5.36-0.81-7.01,1.41c-0.44,0.59-0.83,1.2-1.01,1.92c-0.14,0.55-0.48,0.69-1.01,0.55
							c-1.25-0.34-2.5-0.69-3.76-0.98c-0.66-0.15-0.77-0.48-0.55-1.05C-832.39,75.09-831.02,72.56-829.11,71.66z"/>
						<path class="st3" d="M-829.15,71.59c2.05-1.11,4.3-2.19,6.82-2.15c1.25,0,2.51,0.3,3.63,0.84c1.13,0.53,2.16,1.22,3.06,2.09
							c0.89,0.88,1.61,1.92,2.12,3.03c0.51,1.12,0.82,2.3,1.01,3.49l0.07,0.45c0,0.16,0.08,0.31-0.05,0.58
							c-0.21,0.27-0.41,0.23-0.56,0.26l-0.45,0.05l-1.76,0.19l-1.78,0.23c-0.17,0.01-0.36,0.02-0.57-0.07
							c-0.22-0.07-0.41-0.28-0.5-0.47c-0.09-0.19-0.13-0.37-0.15-0.54c-0.03-0.15-0.04-0.27-0.07-0.41
							c-0.23-1.07-0.94-1.91-1.83-2.49c-0.88-0.6-1.93-0.84-2.96-0.76c-2.1,0.16-3.8,1.75-4.42,3.9c-0.1,0.23-0.3,0.52-0.62,0.69
							c-0.32,0.17-0.64,0.18-0.88,0.15c-0.12-0.01-0.23-0.04-0.33-0.06l-0.22-0.06l-0.42-0.12c-0.56-0.16-1.13-0.31-1.69-0.49
							l-0.84-0.25c-0.29-0.11-0.51-0.14-0.95-0.33c-0.2-0.09-0.47-0.29-0.6-0.62c-0.13-0.33-0.06-0.6-0.01-0.79
							c0.14-0.41,0.27-0.58,0.41-0.88c0.55-1.07,1.15-2.12,1.87-3.08C-831.07,73.04-830.24,72.11-829.15,71.59z M-829.08,71.72
							c-1.05,0.52-1.82,1.47-2.38,2.48c-0.56,1.02-0.98,2.11-1.33,3.23c-0.08,0.25-0.21,0.61-0.22,0.77
							c-0.01,0.09,0.02,0.13,0.01,0.08c-0.01-0.05-0.04-0.06,0.04-0.03c0.1,0.03,0.48,0.09,0.75,0.15l0.87,0.19
							c0.58,0.12,1.16,0.27,1.74,0.41l0.43,0.11l0.21,0.05c0.04,0.01,0.08,0.02,0.11,0.02c0.06,0.01,0.04-0.01-0.01,0.01
							c-0.06,0.03-0.07,0.07-0.06,0.03l0.1-0.35c0.06-0.17,0.12-0.33,0.19-0.49c0.14-0.32,0.31-0.61,0.49-0.88
							c0.34-0.52,0.77-1.06,1.29-1.49c1.03-0.87,2.34-1.37,3.67-1.43c1.33-0.07,2.69,0.37,3.71,1.18c1.05,0.76,1.81,2,1.94,3.29
							c0.02,0.16,0.03,0.32,0.04,0.47c0,0.12,0.02,0.24,0.05,0.32c0.04,0.14,0.13,0.19,0.41,0.2c0.55-0.01,1.17-0.06,1.75-0.1
							l1.77-0.14c0.15-0.01,0.3-0.02,0.43-0.04c0.14-0.01,0.27-0.07,0.23-0.06c0.01,0.01,0.01-0.16-0.02-0.29l-0.08-0.43
							c-0.46-2.29-1.74-4.32-3.48-5.72c-1.74-1.39-3.75-2.55-5.96-2.91C-824.62,69.96-827.04,70.55-829.08,71.72z"/>
					</g>
				</g>
			</g>
			<ellipse class="st0" cx="-825.21" cy="110.81" rx="32.8" ry="3.43"/>
			<g class="st4">
				<path class="st5" d="M-781.77,75.82l-13.41,0.09c0,0,1.68,14.69,18.56,26.88c0,0,14.18,9.63,28.89,8.01l-2.67-4.79
					c0,0,0.03-0.69-1.87-0.83c0,0-9.86-0.4-9.92-10.51c0-0.36-0.01-0.72-0.04-1.08C-762.85,83.47-771.62,75.75-781.77,75.82z"/>
				<path class="st3" d="M-781.77,75.9c-2.24,0.02-4.47,0.05-6.71,0.12l-6.7,0.25l0.35-0.39c0.48,2.55,1.47,5.04,2.57,7.41
					c1.13,2.37,2.41,4.67,3.92,6.82c2.94,4.35,6.6,8.25,10.73,11.56c1.01,0.86,2.1,1.58,3.26,2.24c1.15,0.66,2.32,1.3,3.52,1.86
					c2.41,1.12,4.87,2.13,7.42,2.87c2.55,0.74,5.14,1.27,7.76,1.57c2.62,0.25,5.25,0.26,7.85-0.02l-0.48,0.93l-2.72-4.77l-0.09-0.36
					c0.01,0.22,0.03,0.16,0.03,0.2c0.01,0.01,0.01,0.01,0,0c-0.02-0.02-0.07-0.05-0.14-0.08c-0.14-0.07-0.34-0.12-0.55-0.16
					c-0.23-0.04-0.41-0.06-0.67-0.07c-0.28-0.02-0.54-0.05-0.81-0.09c-1.05-0.16-2.09-0.43-3.08-0.83
					c-1.98-0.78-3.82-2.16-4.99-4.03c-1.17-1.87-1.63-4.07-1.64-6.18c0-0.99-0.12-1.94-0.22-2.9c-0.2-0.95-0.36-1.9-0.69-2.82
					c-0.6-1.84-1.48-3.61-2.6-5.21c-1.15-1.59-2.55-3.01-4.14-4.2C-773.74,77.2-777.75,75.92-781.77,75.9z M-781.77,75.75
					c4.04,0.02,8.12,1.07,11.56,3.33c1.72,1.12,3.29,2.48,4.62,4.08c1.3,1.62,2.35,3.45,3.05,5.42c0.38,0.98,0.6,2,0.82,3.03
					c0.13,1.04,0.27,2.09,0.28,3.12c0.05,1.91,0.48,3.8,1.44,5.37c0.99,1.56,2.51,2.74,4.25,3.48c0.87,0.38,1.8,0.64,2.73,0.79
					c0.23,0.04,0.47,0.07,0.69,0.09c0.24,0.02,0.56,0.05,0.83,0.11c0.29,0.06,0.58,0.13,0.89,0.28c0.16,0.08,0.32,0.17,0.49,0.33
					c0.08,0.07,0.16,0.17,0.24,0.29c0.07,0.15,0.14,0.21,0.15,0.56l-0.09-0.36l2.62,4.82l0.47,0.86l-0.95,0.07
					c-2.71,0.2-5.44,0.14-8.11-0.27c-2.66-0.44-5.28-1.09-7.82-1.94c-2.53-0.87-5.02-1.87-7.42-3.05c-1.2-0.59-2.39-1.19-3.56-1.85
					c-0.58-0.33-1.17-0.66-1.74-1.01c-0.6-0.34-1.09-0.78-1.64-1.17l-1.62-1.19c-0.54-0.4-1.03-0.85-1.55-1.28
					c-0.51-0.43-1.04-0.86-1.54-1.3l-1.46-1.4c-1-0.9-1.86-1.94-2.79-2.93c-0.45-0.51-0.84-1.05-1.27-1.58
					c-0.42-0.53-0.85-1.05-1.21-1.62c-1.58-2.2-2.89-4.58-3.95-7.07c-1.06-2.49-1.84-5.09-2.19-7.81l-0.05-0.4l0.4,0.01l6.71,0.16
					C-786.24,75.76-784.01,75.76-781.77,75.75z"/>
			</g>
			<g class="st4">
				<path class="st5" d="M-795.89,72.01L-807,52.63c0,0-0.16-0.91-2.28-0.38l-13.15,0.53c0,0-20.33-4.11-27.55,16.84
					c0,0-0.5,0.65,1.28,1.44l2.21,1.32c0,0,0.67,0.39,0.96-0.71c0.29-1.1,11.25-23.49,33.67-12.68c0,0,8.64,3.85,11.75,14.88
					c0,0,0.21,1.09,1.41,0.06C-798.7,73.93-795.63,72.48-795.89,72.01z"/>
				<path class="st3" d="M-795.95,72.05c-0.94-1.61-1.85-3.23-2.81-4.83c-0.94-1.61-1.92-3.19-2.89-4.78l-5.83-9.54l-0.07-0.18
					c0.03,0.13,0.01,0.05,0,0.06c-0.02-0.01-0.05-0.03-0.1-0.05c-0.1-0.04-0.25-0.06-0.4-0.06c-0.33,0-0.7,0.07-1.07,0.17
					l-0.05,0.01l-0.07,0c-4.38,0.23-8.76,0.39-13.15,0.48l-0.07,0l-0.07-0.01c-2.78-0.51-5.76-0.53-8.62-0.12
					c-2.87,0.41-5.69,1.36-8.18,2.87c-2.49,1.5-4.72,3.49-6.36,5.89l-0.65,0.87c-0.23,0.29-0.36,0.63-0.55,0.94l-1.04,1.92
					c-0.37,0.63-0.56,1.34-0.85,2.01l-0.79,2.03l-0.06,0.12c0.05-0.08,0.01,0,0.06,0.06c0.04,0.08,0.14,0.17,0.25,0.26
					c0.23,0.17,0.53,0.32,0.83,0.45l0.02,0.01l0.03,0.02l1.74,0.99l0.43,0.25c0.07,0.05,0.08,0.02,0.07,0.02
					c-0.02,0.03,0.12-0.13,0.18-0.42c0.28-0.78,0.58-1.3,0.91-1.93c0.33-0.6,0.67-1.18,1.04-1.76c1.47-2.29,3.2-4.42,5.22-6.26
					c2.01-1.84,4.31-3.43,6.85-4.52c2.53-1.13,5.3-1.69,8.06-1.74c2.77-0.04,5.52,0.46,8.11,1.31c0.65,0.22,1.28,0.48,1.92,0.72
					c0.63,0.25,1.24,0.56,1.85,0.83c1.28,0.56,2.42,1.36,3.5,2.2c4.28,3.44,7.23,8.29,8.57,13.47l0,0.01l0,0
					c0.05,0.25,0.24,0.47,0.5,0.41c0.26-0.04,0.51-0.22,0.73-0.4l0.01-0.01l0.01,0c0.52-0.25,1.04-0.51,1.55-0.8
					c0.25-0.14,0.5-0.29,0.74-0.46c0.12-0.08,0.23-0.17,0.33-0.26C-796.04,72.24-795.92,72.11-795.95,72.05z M-795.83,71.98
					c0.07,0.25-0.11,0.34-0.19,0.46c-0.11,0.1-0.23,0.19-0.35,0.28c-0.24,0.17-0.49,0.33-0.74,0.47c-0.51,0.29-1.02,0.57-1.55,0.82
					l0.02-0.01c-0.24,0.19-0.48,0.4-0.82,0.46c-0.17,0.04-0.37,0-0.51-0.13c-0.14-0.12-0.22-0.27-0.26-0.45l0,0.01
					c-1.51-5.11-4.78-9.61-9.03-12.62c-1.06-0.75-2.17-1.43-3.35-1.9c-0.61-0.25-1.21-0.53-1.82-0.76l-1.85-0.64
					c-2.48-0.79-5.07-1.2-7.64-1.15c-5.17,0.02-10.15,2.26-14.02,5.74c-1.96,1.72-3.66,3.74-5.14,5.9c-0.37,0.54-0.72,1.1-1.05,1.66
					c-0.31,0.54-0.67,1.19-0.86,1.66c-0.11,0.32-0.24,0.89-0.93,1.14c-0.33,0.1-0.68,0-0.88-0.14l-0.42-0.27l-1.7-1.07l0.05,0.03
					c-0.34-0.17-0.68-0.35-1.01-0.62c-0.16-0.14-0.32-0.3-0.45-0.54c-0.11-0.24-0.22-0.57,0.03-0.96l-0.06,0.12
					c0.62-1.36,1.13-2.76,1.83-4.07c0.79-1.27,1.43-2.62,2.41-3.75c1.7-2.45,4.05-4.39,6.55-5.97c2.53-1.55,5.36-2.63,8.29-3.2
					c2.94-0.55,5.94-0.69,8.97-0.27l-0.13-0.01c4.38-0.27,8.76-0.45,13.14-0.58l-0.13,0.02c0.44-0.1,0.9-0.18,1.41-0.16
					c0.26,0.02,0.53,0.05,0.82,0.18c0.29,0.15,0.61,0.3,0.76,0.86l-0.07-0.18l5.28,9.85c0.88,1.64,1.75,3.29,2.66,4.91
					C-797.68,68.75-796.74,70.36-795.83,71.98z"/>
			</g>
			<path class="st6" d="M-822.43,52.77c0,0-11.42-1.34-17.36-11.33s4.9-15.77-20.09-30.36c0,0-14.72,22.65,0.8,48.1l3.03-3.89
				c0,0,0.68-0.67-0.25-2.11c0,0-4.2-9.98,4.06-13.96L-841.2,57C-841.2,57-833.48,50.95-822.43,52.77z"/>
		</g>
	</g>
</g>
<g>
	<g>
		<path class="st7" d="M116.16,4.72H26.15c-3.5,0-6.34,2.84-6.34,6.34v6.46c0,3.5,2.84,6.34,6.34,6.34h0c0.34,0,0.67,0.14,0.91,0.38
			l2.57,2.57c0.5,0.5,1.32,0.5,1.83,0l2.57-2.57c0.24-0.24,0.57-0.38,0.91-0.38h81.21c3.5,0,6.34-2.84,6.34-6.34v-6.46
			C122.5,7.56,119.66,4.72,116.16,4.72z"/>
		<g>
			<path class="st8" d="M48.89,16.33l-0.46-0.47l0.48-0.48l0.46,0.48L48.89,16.33z M49.19,14.76h-0.58l-0.06-2.84h0.71L49.19,14.76z
				"/>
			<path class="st8" d="M50.98,15.99c-0.07,0-0.13,0-0.19-0.01s-0.13-0.02-0.19-0.03c-0.07-0.01-0.13-0.03-0.2-0.04
				c-0.07-0.02-0.14-0.04-0.22-0.06l-0.31-0.09l0.19-0.62c0.15,0.05,0.3,0.1,0.46,0.14c0.16,0.04,0.31,0.07,0.45,0.08
				c0.05,0,0.09,0,0.13,0c0.09,0,0.17-0.01,0.26-0.03s0.15-0.07,0.18-0.14c0.01-0.01,0.01-0.03,0.01-0.05c0-0.01,0-0.03-0.01-0.06
				c-0.01-0.03-0.02-0.06-0.05-0.1l-0.96-1.4l0.54-0.35l0.17,0.27c0,0,0,0.01,0.01,0.02c0.01,0.01,0.02,0.03,0.04,0.05
				c0.02,0.03,0.04,0.07,0.08,0.12c0.03,0.05,0.08,0.12,0.13,0.2c0.06,0.08,0.12,0.18,0.2,0.31c0.08,0.12,0.18,0.27,0.29,0.43
				c0.09,0.13,0.14,0.27,0.16,0.41c0,0.04,0.01,0.07,0.01,0.11c0,0.1-0.02,0.2-0.06,0.3c-0.03,0.07-0.07,0.13-0.12,0.19
				s-0.11,0.11-0.17,0.15c-0.12,0.08-0.27,0.14-0.44,0.17C51.24,15.98,51.1,15.99,50.98,15.99z"/>
			<path class="st8" d="M54.25,15.83c-0.01,0.24-0.05,0.45-0.13,0.64c-0.08,0.19-0.18,0.35-0.32,0.48c-0.14,0.13-0.3,0.24-0.49,0.31
				s-0.41,0.11-0.65,0.11h-0.32v-0.64h0.32c0.17,0,0.31-0.02,0.43-0.05c0.12-0.03,0.22-0.09,0.3-0.16c0.08-0.08,0.13-0.17,0.17-0.3
				c0.04-0.12,0.06-0.27,0.06-0.44v-1.57h0.64V15.83z"/>
			<path class="st8" d="M55.55,15.99h-0.64v-3.72h0.64V15.99z"/>
			<path class="st8" d="M59.13,15.99h-0.21c-0.23,0-0.45-0.1-0.65-0.3c-0.06,0.07-0.12,0.12-0.2,0.17c-0.08,0.04-0.16,0.08-0.25,0.1
				c-0.09,0.03-0.18,0.04-0.27,0.05s-0.18,0.02-0.26,0.02c-0.07,0-0.13,0-0.2-0.01c-0.07-0.01-0.14-0.02-0.23-0.04
				s-0.18-0.04-0.29-0.07c-0.11-0.03-0.24-0.07-0.39-0.11l0.19-0.62c0.1,0.04,0.21,0.08,0.32,0.11s0.22,0.06,0.33,0.08
				c0.11,0.02,0.21,0.03,0.31,0.04c0.04,0,0.08,0,0.11,0c0.05,0,0.11,0,0.17-0.01s0.12-0.03,0.17-0.06
				c0.05-0.03,0.09-0.07,0.11-0.11c0.01-0.02,0.01-0.04,0.01-0.06c0-0.02,0-0.03-0.01-0.06c-0.01-0.02-0.02-0.05-0.04-0.08
				s-0.05-0.07-0.08-0.12l-0.92-1.29l0.54-0.35l0.92,1.39c0.05,0.08,0.1,0.15,0.16,0.23c0.06,0.08,0.11,0.15,0.17,0.22
				s0.11,0.12,0.16,0.16c0.05,0.04,0.1,0.06,0.14,0.06h0.21V15.99z"/>
			<path class="st8" d="M60.52,13.83c0,0.01,0.01,0.04,0.02,0.08c0.01,0.04,0.02,0.1,0.04,0.16s0.03,0.14,0.04,0.22
				c0.01,0.08,0.03,0.16,0.04,0.24c0.01,0.08,0.02,0.16,0.03,0.23s0.01,0.14,0.01,0.2c0,0.18-0.03,0.33-0.09,0.46
				c-0.06,0.13-0.13,0.24-0.23,0.32c-0.09,0.08-0.2,0.15-0.32,0.19c-0.12,0.04-0.24,0.06-0.35,0.06h-0.69v-0.64h0.7
				c0.02,0,0.05,0,0.09-0.01c0.04-0.01,0.08-0.02,0.12-0.05c0.04-0.03,0.07-0.06,0.1-0.12c0.03-0.05,0.04-0.12,0.04-0.22
				c0-0.04,0-0.08-0.01-0.14s-0.01-0.11-0.02-0.17s-0.02-0.12-0.04-0.19c-0.01-0.06-0.03-0.13-0.04-0.18
				c-0.01-0.06-0.02-0.11-0.04-0.16c-0.01-0.05-0.02-0.08-0.03-0.11L60.52,13.83z M59.55,12.79l0.46-0.47l0.47,0.47l-0.47,0.47
				L59.55,12.79z"/>
			<path class="st8" d="M63.95,15.99c-0.07,0-0.13,0-0.19-0.01s-0.13-0.02-0.19-0.03c-0.07-0.01-0.13-0.03-0.2-0.04
				c-0.07-0.02-0.14-0.04-0.22-0.06l-0.31-0.09l0.19-0.62c0.15,0.05,0.3,0.1,0.46,0.14c0.16,0.04,0.31,0.07,0.45,0.08
				c0.05,0,0.09,0,0.13,0c0.09,0,0.17-0.01,0.26-0.03s0.15-0.07,0.18-0.14c0.01-0.01,0.01-0.03,0.01-0.05c0-0.01,0-0.03-0.01-0.06
				c-0.01-0.03-0.02-0.06-0.05-0.1l-0.96-1.4l0.54-0.35l0.17,0.27c0,0,0,0.01,0.01,0.02c0.01,0.01,0.02,0.03,0.04,0.05
				c0.02,0.03,0.04,0.07,0.08,0.12c0.03,0.05,0.08,0.12,0.13,0.2c0.06,0.08,0.12,0.18,0.2,0.31c0.08,0.12,0.18,0.27,0.29,0.43
				c0.09,0.13,0.14,0.27,0.16,0.41c0,0.04,0.01,0.07,0.01,0.11c0,0.1-0.02,0.2-0.06,0.3c-0.03,0.07-0.07,0.13-0.12,0.19
				s-0.11,0.11-0.17,0.15c-0.12,0.08-0.27,0.14-0.44,0.17C64.21,15.98,64.08,15.99,63.95,15.99z"/>
			<path class="st8" d="M65.88,16.73c0.14,0,0.26,0,0.37-0.01c0.11-0.01,0.2-0.02,0.29-0.04c0.08-0.02,0.16-0.04,0.22-0.07
				c0.06-0.03,0.12-0.06,0.16-0.1c0.07-0.06,0.13-0.13,0.16-0.2c0.04-0.08,0.06-0.18,0.07-0.31h-0.4c-0.09,0-0.17-0.01-0.26-0.02
				c-0.09-0.01-0.17-0.04-0.26-0.07c-0.08-0.03-0.16-0.08-0.23-0.13s-0.14-0.12-0.19-0.2c-0.05-0.08-0.1-0.17-0.13-0.28
				c-0.03-0.11-0.05-0.23-0.05-0.37c0-0.12,0.01-0.22,0.03-0.32c0.02-0.09,0.05-0.17,0.08-0.24s0.07-0.13,0.11-0.18
				c0.04-0.05,0.08-0.1,0.11-0.14c0.1-0.1,0.22-0.18,0.35-0.24c0.13-0.06,0.27-0.08,0.42-0.08c0.19,0,0.35,0.03,0.48,0.1
				s0.24,0.15,0.33,0.27s0.15,0.25,0.19,0.4c0.04,0.16,0.06,0.32,0.06,0.51v0.35h0.44v0.64h-0.44c-0.01,0.24-0.05,0.43-0.12,0.6
				c-0.08,0.16-0.19,0.3-0.34,0.42c-0.08,0.06-0.17,0.12-0.26,0.16s-0.2,0.08-0.31,0.11s-0.24,0.05-0.39,0.07
				c-0.14,0.01-0.3,0.02-0.48,0.02V16.73z M66.73,14.37c-0.15,0-0.26,0.05-0.35,0.14c-0.09,0.09-0.13,0.23-0.13,0.42
				c0,0.08,0.01,0.14,0.04,0.19s0.07,0.1,0.12,0.13c0.05,0.03,0.1,0.06,0.16,0.07c0.06,0.02,0.12,0.02,0.18,0.02h0.4V15
				c0-0.1-0.01-0.18-0.02-0.25c-0.02-0.07-0.04-0.13-0.06-0.17c-0.02-0.05-0.05-0.08-0.08-0.11s-0.06-0.05-0.09-0.06
				c-0.03-0.01-0.06-0.02-0.09-0.03S66.75,14.37,66.73,14.37z"/>
			<path class="st8" d="M71.65,14.97c-0.01,0.01-0.06,0.04-0.13,0.09c-0.08,0.05-0.18,0.12-0.31,0.19
				c-0.13,0.08-0.28,0.16-0.46,0.24s-0.36,0.17-0.57,0.24c-0.2,0.07-0.42,0.14-0.64,0.18s-0.44,0.07-0.67,0.07h-0.78v-0.64h0.78
				c0.17,0,0.35-0.02,0.54-0.05c0.19-0.03,0.38-0.08,0.56-0.13s0.36-0.11,0.53-0.18c0.17-0.07,0.31-0.13,0.44-0.2
				c-0.08-0.02-0.16-0.05-0.26-0.08s-0.19-0.06-0.28-0.08c-0.1-0.03-0.19-0.06-0.29-0.08c-0.09-0.03-0.18-0.05-0.27-0.07
				c-0.08-0.02-0.16-0.04-0.22-0.05c-0.07-0.01-0.12-0.02-0.15-0.02c-0.04,0-0.07,0-0.1,0.01c-0.03,0.01-0.06,0.02-0.08,0.05
				s-0.05,0.05-0.07,0.08c-0.02,0.03-0.04,0.08-0.06,0.12l-0.59-0.18c0.03-0.1,0.07-0.2,0.12-0.29c0.05-0.09,0.1-0.17,0.17-0.24
				c0.07-0.07,0.15-0.12,0.24-0.16c0.09-0.04,0.19-0.06,0.31-0.06c0.04,0,0.11,0.01,0.19,0.03c0.08,0.02,0.18,0.04,0.28,0.08
				c0.1,0.03,0.22,0.07,0.34,0.11s0.24,0.08,0.36,0.12s0.24,0.08,0.35,0.13c0.11,0.04,0.22,0.08,0.31,0.11
				c0.09,0.03,0.17,0.06,0.23,0.08c0.06,0.02,0.1,0.04,0.12,0.04L71.65,14.97z M69.41,16.87l0.46-0.47l0.47,0.47l-0.47,0.47
				L69.41,16.87z"/>
			<path class="st8" d="M72.41,16.73c0.14,0,0.26,0,0.37-0.01c0.11-0.01,0.2-0.02,0.29-0.04c0.08-0.02,0.16-0.04,0.22-0.07
				c0.06-0.03,0.12-0.06,0.16-0.1c0.07-0.06,0.13-0.13,0.16-0.2c0.04-0.08,0.06-0.18,0.07-0.31h-0.4c-0.09,0-0.17-0.01-0.26-0.02
				c-0.09-0.01-0.17-0.04-0.26-0.07c-0.08-0.03-0.16-0.08-0.23-0.13s-0.14-0.12-0.19-0.2c-0.05-0.08-0.1-0.17-0.13-0.28
				c-0.03-0.11-0.05-0.23-0.05-0.37c0-0.12,0.01-0.22,0.03-0.32c0.02-0.09,0.05-0.17,0.08-0.24s0.07-0.13,0.11-0.18
				c0.04-0.05,0.08-0.1,0.11-0.14c0.1-0.1,0.22-0.18,0.35-0.24c0.13-0.06,0.27-0.08,0.42-0.08c0.19,0,0.35,0.03,0.48,0.1
				s0.24,0.15,0.33,0.27s0.15,0.25,0.19,0.4c0.04,0.16,0.06,0.32,0.06,0.51v0.91c0,0.26-0.04,0.47-0.12,0.65
				c-0.08,0.17-0.19,0.32-0.35,0.45c-0.08,0.06-0.17,0.12-0.26,0.16s-0.2,0.08-0.31,0.11s-0.24,0.05-0.39,0.07
				c-0.14,0.01-0.3,0.02-0.48,0.02V16.73z M73.26,14.37c-0.15,0-0.26,0.05-0.35,0.14c-0.09,0.09-0.13,0.23-0.13,0.42
				c0,0.08,0.01,0.14,0.04,0.19s0.07,0.1,0.12,0.13c0.05,0.03,0.1,0.06,0.16,0.07c0.06,0.02,0.12,0.02,0.18,0.02h0.4V15
				c0-0.1-0.01-0.18-0.02-0.25c-0.02-0.07-0.04-0.13-0.06-0.17c-0.02-0.05-0.05-0.08-0.08-0.11s-0.06-0.05-0.09-0.06
				c-0.03-0.01-0.06-0.02-0.09-0.03S73.28,14.37,73.26,14.37z"/>
			<path class="st8" d="M78.8,16.77c0.16,0,0.29-0.01,0.41-0.03c0.11-0.02,0.21-0.05,0.28-0.1c0.07-0.05,0.13-0.11,0.17-0.2
				c0.04-0.08,0.06-0.19,0.06-0.31c-0.02-0.01-0.06-0.02-0.11-0.03c-0.05-0.01-0.11-0.03-0.19-0.05s-0.15-0.04-0.23-0.06
				c-0.08-0.02-0.17-0.04-0.25-0.07c-0.09-0.02-0.17-0.05-0.25-0.07c-0.08-0.02-0.16-0.04-0.23-0.06c-0.04-0.11-0.08-0.22-0.1-0.33
				c-0.02-0.11-0.03-0.21-0.03-0.32c0-0.2,0.04-0.38,0.11-0.56c0.07-0.17,0.17-0.33,0.31-0.46s0.3-0.23,0.49-0.31
				c0.19-0.08,0.41-0.11,0.65-0.11c0.09,0,0.17,0.01,0.26,0.02c0.08,0.01,0.18,0.04,0.29,0.06l-0.16,0.62
				c-0.08-0.02-0.15-0.04-0.21-0.05c-0.06-0.01-0.12-0.02-0.19-0.02c-0.13,0-0.25,0.02-0.36,0.06c-0.11,0.04-0.21,0.09-0.29,0.16
				c-0.08,0.07-0.15,0.16-0.19,0.26c-0.05,0.1-0.07,0.22-0.07,0.35c0,0.01,0,0.02,0,0.03s0,0.02,0,0.03l0.9,0.23
				c0.17,0.04,0.28,0.11,0.36,0.21c0.07,0.1,0.11,0.22,0.11,0.37c0,0.24-0.03,0.44-0.08,0.62c-0.05,0.17-0.14,0.31-0.26,0.43
				c-0.12,0.11-0.28,0.2-0.47,0.25c-0.19,0.05-0.43,0.08-0.71,0.08h-0.54c-0.14,0-0.28-0.02-0.4-0.05
				c-0.13-0.03-0.25-0.08-0.36-0.14s-0.22-0.13-0.31-0.22c-0.09-0.09-0.18-0.19-0.25-0.29c-0.17-0.27-0.25-0.6-0.25-0.97
				c0-0.11,0.01-0.23,0.02-0.34c0.01-0.11,0.04-0.23,0.07-0.34c0.03-0.12,0.08-0.24,0.13-0.37c0.05-0.13,0.11-0.27,0.19-0.42
				l0.57,0.28c-0.06,0.13-0.11,0.24-0.15,0.35c-0.04,0.11-0.08,0.21-0.11,0.3c-0.03,0.09-0.05,0.18-0.06,0.27
				c-0.01,0.09-0.02,0.17-0.02,0.26c0,0.25,0.05,0.46,0.17,0.63c0.08,0.13,0.19,0.23,0.32,0.3c0.14,0.07,0.29,0.1,0.45,0.1H78.8z"/>
			<path class="st8" d="M81.8,15.99h-0.64v-3.72h0.64V15.99z"/>
			<path class="st8" d="M85.41,15.99c-0.17,0-0.32-0.02-0.45-0.07c-0.14-0.05-0.26-0.11-0.36-0.2c-0.1-0.09-0.18-0.19-0.23-0.31
				c-0.06-0.12-0.08-0.25-0.08-0.4c0-0.14,0.02-0.27,0.05-0.39s0.08-0.22,0.15-0.32c0.06-0.1,0.13-0.19,0.21-0.28
				c0.08-0.09,0.17-0.18,0.26-0.28l-0.16-0.18l0.47-0.43c0.02,0.02,0.04,0.05,0.07,0.08c0.03,0.03,0.05,0.06,0.08,0.08
				c0.03,0.03,0.05,0.06,0.08,0.08s0.05,0.05,0.07,0.07c0.12,0.13,0.25,0.26,0.36,0.39s0.22,0.25,0.31,0.37s0.17,0.25,0.22,0.38
				c0.05,0.12,0.08,0.25,0.08,0.38v0.01c0,0.15-0.03,0.29-0.09,0.41c-0.06,0.12-0.14,0.23-0.26,0.33c-0.1,0.09-0.22,0.16-0.35,0.21
				C85.71,15.97,85.57,15.99,85.41,15.99z M85.38,14.13c-0.07,0.08-0.13,0.15-0.2,0.22c-0.06,0.07-0.11,0.14-0.16,0.21
				c-0.04,0.07-0.08,0.14-0.1,0.21c-0.02,0.06-0.03,0.13-0.03,0.2c0,0.01,0,0.03,0,0.04c0,0.06,0.02,0.12,0.06,0.16
				s0.07,0.08,0.12,0.11s0.1,0.05,0.16,0.07c0.06,0.01,0.12,0.02,0.17,0.02c0.07,0,0.13-0.01,0.19-0.03
				c0.06-0.02,0.11-0.05,0.16-0.08c0.05-0.03,0.08-0.08,0.11-0.13s0.04-0.1,0.04-0.17c0-0.07-0.01-0.15-0.04-0.22
				c-0.03-0.07-0.07-0.14-0.12-0.21c-0.05-0.07-0.11-0.14-0.17-0.21S85.45,14.2,85.38,14.13z"/>
			<path class="st8" d="M88.09,15.99c-0.07,0-0.13,0-0.19-0.01s-0.13-0.02-0.19-0.03c-0.07-0.01-0.13-0.03-0.2-0.04
				c-0.07-0.02-0.14-0.04-0.22-0.06l-0.31-0.09l0.19-0.62c0.15,0.05,0.3,0.1,0.46,0.14c0.16,0.04,0.31,0.07,0.45,0.08
				c0.05,0,0.09,0,0.13,0c0.09,0,0.17-0.01,0.26-0.03s0.15-0.07,0.18-0.14c0.01-0.01,0.01-0.03,0.01-0.05c0-0.01,0-0.03-0.01-0.06
				c-0.01-0.03-0.02-0.06-0.05-0.1l-0.96-1.4l0.54-0.35l0.17,0.27c0,0,0,0.01,0.01,0.02c0.01,0.01,0.02,0.03,0.04,0.05
				c0.02,0.03,0.04,0.07,0.08,0.12c0.03,0.05,0.08,0.12,0.13,0.2c0.06,0.08,0.12,0.18,0.2,0.31c0.08,0.12,0.18,0.27,0.29,0.43
				c0.09,0.13,0.14,0.27,0.16,0.41c0,0.04,0.01,0.07,0.01,0.11c0,0.1-0.02,0.2-0.06,0.3c-0.03,0.07-0.07,0.13-0.12,0.19
				s-0.11,0.11-0.17,0.15c-0.12,0.08-0.27,0.14-0.44,0.17C88.34,15.98,88.21,15.99,88.09,15.99z"/>
			<path class="st8" d="M90.56,15.99h-0.64v-3.72h0.64V15.99z"/>
			<path class="st8" d="M92.36,15.99c-0.07,0-0.13,0-0.19-0.01s-0.13-0.02-0.19-0.03c-0.07-0.01-0.13-0.03-0.2-0.04
				c-0.07-0.02-0.14-0.04-0.22-0.06l-0.31-0.09l0.19-0.62c0.15,0.05,0.3,0.1,0.46,0.14c0.16,0.04,0.31,0.07,0.45,0.08
				c0.05,0,0.09,0,0.13,0c0.09,0,0.17-0.01,0.26-0.03s0.15-0.07,0.18-0.14c0.01-0.01,0.01-0.03,0.01-0.05c0-0.01,0-0.03-0.01-0.06
				c-0.01-0.03-0.02-0.06-0.05-0.1l-0.96-1.4l0.54-0.35l0.17,0.27c0,0,0,0.01,0.01,0.02c0.01,0.01,0.02,0.03,0.04,0.05
				c0.02,0.03,0.04,0.07,0.08,0.12c0.03,0.05,0.08,0.12,0.13,0.2c0.06,0.08,0.12,0.18,0.2,0.31c0.08,0.12,0.18,0.27,0.29,0.43
				c0.09,0.13,0.14,0.27,0.16,0.41c0,0.04,0.01,0.07,0.01,0.11c0,0.1-0.02,0.2-0.06,0.3c-0.03,0.07-0.07,0.13-0.12,0.19
				s-0.11,0.11-0.17,0.15c-0.12,0.08-0.27,0.14-0.44,0.17C92.62,15.98,92.49,15.99,92.36,15.99z"/>
		</g>
		<g>
			<g>
				<g>
					<g>
						<path class="st9" d="M45.34,42.2c-0.36,0.19-0.7,0.42-1.03,0.67c-0.15,0.12-0.27,0.08-0.38-0.05
							c-1.04-1.2-1.84-2.53-2.07-4.13c-0.03-0.21-0.12-0.28-0.31-0.27c-0.07,0-0.13,0-0.2,0c-2.03,0-4.06,0-6.1,0
							c-0.08,0-0.16,0-0.24,0c-0.12,0-0.19,0.04-0.18,0.19c0.12,1.49,0.89,2.75,2.52,3.14c0.36,0.09,0.73,0.13,1.09,0.21
							c0.14,0.03,0.24,0.08,0.31,0.21c0.21,0.43,0.43,0.85,0.63,1.28c0.1,0.2,0.06,0.28-0.16,0.28c-0.57,0-1.14,0.03-1.71-0.03
							c-0.51-0.06-1.03-0.09-1.54-0.18c-1.68-0.3-3.26-0.88-4.75-1.73c-1.44-0.82-2.71-1.85-3.83-3.07
							c-0.8-0.87-1.47-1.83-2.05-2.87c-0.48-0.85-0.82-1.75-1.1-2.67c-0.09-0.29-0.14-0.58-0.18-0.87c0.17-0.08,0.32-0.05,0.46-0.05
							c2.48,0,4.97-0.01,7.45,0c0.33,0,0.51-0.06,0.66-0.4c0.58-1.29,1.21-2.57,1.81-3.85c0.07-0.16,0.17-0.22,0.33-0.22
							c1.21,0.01,2.42,0,3.63,0.01c0.3,0,0.33,0.05,0.2,0.33c-0.57,1.24-1.13,2.48-1.7,3.72c-0.02,0.05-0.05,0.1-0.07,0.14
							c-0.07,0.2-0.05,0.23,0.15,0.25c0.08,0.01,0.16,0,0.24,0c2.02,0,4.04-0.01,6.06,0.01c0.31,0,0.48-0.09,0.61-0.38
							c0.45-1.02,0.92-2.02,1.38-3.04c0.12-0.27,0.26-0.52,0.37-0.79c0.08-0.2,0.22-0.27,0.43-0.26c1.1,0.01,2.21-0.04,3.31,0.03
							c1.16,0.07,2.31,0.02,3.46,0.05c0.08,0,0.16,0,0.24,0c0.18-0.01,0.23,0.05,0.24,0.23c0.03,0.36,0.09,0.73,0.14,1.08
							c0.03,0.21-0.05,0.23-0.22,0.2c-0.71-0.15-1.43-0.24-2.17-0.22c-1.03,0.04-2.02,0.24-2.97,0.62c-1.5,0.6-2.68,1.6-3.57,2.93
							c-0.65,0.97-1.02,2.05-1.15,3.22c-0.24,2.24,0.49,4.17,1.78,5.93c0.05,0.06,0.1,0.13,0.14,0.19
							C45.32,42.1,45.33,42.14,45.34,42.2z"/>
						<path class="st10" d="M45.36,42.21l-1.1,0.74c-0.12,0.07-0.28,0-0.35-0.09l-0.22-0.25c-0.14-0.17-0.28-0.34-0.41-0.51
							c-0.53-0.7-0.99-1.47-1.27-2.31c-0.07-0.21-0.13-0.42-0.18-0.64c-0.06-0.19-0.07-0.5-0.13-0.58
							c-0.03-0.06-0.35-0.02-0.54-0.03l-0.66,0l-2.62,0.02l-2.62,0.02c-0.09,0-0.25,0-0.28,0.01c0,0.01,0.04-0.06,0.03-0.02
							c0,0.02,0.01,0.09,0.01,0.14c0.02,0.21,0.06,0.42,0.11,0.62c0.1,0.41,0.28,0.79,0.52,1.12c0.49,0.67,1.25,1.07,2.11,1.18
							l0.64,0.12c0.09,0.02,0.26,0.04,0.39,0.16c0.14,0.14,0.16,0.25,0.22,0.34l0.59,1.19c0.02,0.07,0.08,0.15,0,0.33
							c-0.12,0.18-0.25,0.16-0.31,0.17c-0.14,0.01-0.23,0-0.35,0l-0.66-0.02c-0.44-0.01-0.89-0.02-1.32-0.09
							c-0.88-0.09-1.75-0.24-2.6-0.51c-1.69-0.51-3.29-1.33-4.71-2.38c-1.41-1.06-2.66-2.33-3.64-3.8
							c-0.98-1.46-1.74-3.09-2.03-4.84l-0.01-0.07l0.05,0c2.67-0.12,5.27-0.06,7.91-0.09c0.35,0.03,0.51-0.11,0.63-0.44l0.41-0.89
							l0.83-1.79l0.41-0.9l0.11-0.23c0.05-0.09,0.15-0.19,0.27-0.23c0.25-0.05,0.35-0.01,0.54-0.02l1.97-0.01l0.99,0
							c0.18,0.01,0.3-0.02,0.54,0.02c0.05,0,0.21,0.1,0.22,0.23c0.01,0.11-0.02,0.15-0.03,0.2c-0.03,0.1-0.07,0.17-0.1,0.24
							l-0.8,1.8l-0.81,1.8c-0.03,0.07-0.07,0.14-0.09,0.2c-0.01,0.02,0,0.07-0.01-0.01c-0.05-0.11-0.11-0.09-0.07-0.09
							c0.12,0.02,0.29,0.01,0.45,0.01l0.99,0l3.94,0l0.98,0c0.3,0,0.32-0.1,0.48-0.46l0.81-1.8l0.82-1.79
							c0.03-0.08,0.09-0.2,0.2-0.29c0.11-0.09,0.25-0.13,0.35-0.14c0.21-0.01,0.34,0,0.52,0l0.99,0.01l3.94,0.04l0.98,0.01
							l0.49,0.01l0.25,0c0.06,0,0.15,0.01,0.25,0.08c0.1,0.08,0.13,0.18,0.14,0.24l0.13,1l0.03,0.26c0,0.06,0.01,0.13-0.04,0.25
							c-0.07,0.14-0.25,0.18-0.31,0.17c-0.26-0.03-0.34-0.07-0.52-0.1c-1.26-0.25-2.57-0.19-3.81,0.16
							c-2.49,0.64-4.61,2.64-5.29,5.14c-0.34,1.25-0.36,2.58-0.05,3.84c0.16,0.63,0.4,1.24,0.69,1.82c0.15,0.29,0.31,0.57,0.49,0.85
							C45,41.65,45.26,41.85,45.36,42.21z M45.32,42.19c-0.3-0.52-0.76-1.06-1.05-1.64c-0.32-0.58-0.58-1.19-0.76-1.83
							c-0.36-1.28-0.36-2.66-0.03-3.95c0.67-2.61,2.84-4.73,5.44-5.45c1.28-0.38,2.67-0.47,4-0.23l0.44,0.08
							c0.02-0.01-0.07,0.01-0.1,0.07c-0.02,0.04-0.01,0.03-0.01,0.01l-0.03-0.23l-0.13-0.96c-0.04-0.03,0.11,0.08,0.05,0.05l-0.24,0
							l-0.5-0.01l-0.99-0.02l-3.94-0.05l-0.98-0.01l-0.47,0c-0.11,0.02-0.11,0.01-0.17,0.15l-0.82,1.8l-0.81,1.79
							c-0.07,0.14-0.11,0.31-0.27,0.49c-0.17,0.19-0.43,0.23-0.61,0.23l-0.99,0l-3.94-0.01l-0.99,0c-0.17-0.01-0.33,0.01-0.53-0.02
							c-0.04-0.01-0.19-0.01-0.27-0.21c-0.03-0.16,0.01-0.19,0.02-0.25c0.03-0.09,0.07-0.17,0.11-0.25l0.83-1.79l0.83-1.79
							l0.09-0.21c0.01-0.03,0.01-0.06,0.01-0.04c0,0.04,0.07,0.09,0.05,0.07c-0.08-0.02-0.29-0.01-0.44-0.02l-0.99-0.01l-1.97-0.02
							c-0.15,0-0.37-0.01-0.45,0c-0.07,0-0.12,0.14-0.2,0.3l-0.43,0.89l-0.85,1.78L32.8,31.8c-0.07,0.14-0.14,0.33-0.31,0.45
							c-0.18,0.12-0.38,0.12-0.54,0.12c-2.61,0-5.29-0.08-7.85-0.01l0.04-0.07c0.3,1.7,1.08,3.31,2.06,4.73
							c0.98,1.43,2.23,2.67,3.63,3.69c1.4,1.01,2.98,1.79,4.64,2.27c0.83,0.25,1.68,0.39,2.55,0.47c0.43,0.06,0.86,0.07,1.29,0.07
							l0.65,0.01l0.31,0c0.04,0,0.04-0.03-0.03,0.05c-0.03,0.08,0,0.05-0.03,0.02l-0.56-1.16c-0.13-0.26-0.07-0.23-0.33-0.29
							l-0.65-0.13c-0.87-0.12-1.79-0.59-2.31-1.36c-0.27-0.38-0.46-0.81-0.56-1.25c-0.05-0.22-0.09-0.44-0.11-0.67
							c0-0.06-0.02-0.1-0.01-0.19c-0.02-0.07,0.09-0.26,0.2-0.27c0.19-0.04,0.25-0.01,0.37-0.02l2.62,0.02l2.62,0.02l0.66,0l0.32,0
							c0.09,0.01,0.28-0.03,0.4,0.12c0.16,0.29,0.1,0.46,0.18,0.68c0.04,0.21,0.1,0.42,0.16,0.62c0.25,0.82,0.67,1.6,1.17,2.3
							c0.13,0.18,0.26,0.35,0.39,0.52c0.14,0.15,0.26,0.42,0.44,0.33L45.32,42.19z"/>
					</g>
					<g>
						<path class="st9" d="M51.16,30.42c0.66-0.04,1.3,0.06,1.93,0.22c0.3,0.07,0.3,0.1,0.28,0.41c-0.03,0.41-0.08,0.81-0.16,1.22
							c-0.05,0.22-0.12,0.23-0.32,0.19c-0.54-0.11-1.09-0.21-1.65-0.18c-1.3,0.05-2.47,0.46-3.4,1.41
							c-0.72,0.74-1.15,1.63-1.28,2.67c-0.17,1.39,0.23,2.58,1.1,3.65c0.34,0.41,0.34,0.41-0.08,0.72c-0.3,0.22-0.59,0.45-0.89,0.67
							c-0.15,0.11-0.27,0.14-0.43-0.04c-0.94-1-1.49-2.19-1.69-3.53c-0.28-1.89,0.21-3.61,1.41-5.09c0.93-1.14,2.15-1.87,3.61-2.17
							C50.12,30.46,50.64,30.38,51.16,30.42z"/>
						<path class="st10" d="M51.16,30.4c0.72-0.05,1.43,0.06,2.15,0.25c0.13,0.04,0.15,0.21,0.14,0.29c0,0.09-0.01,0.18-0.02,0.27
							l-0.05,0.54l-0.05,0.54c-0.01,0.08-0.04,0.27-0.24,0.32c-0.15,0.02-0.23-0.01-0.32-0.02c-1.38-0.26-2.84-0.11-4.02,0.61
							c-1.17,0.7-2.04,1.99-2.13,3.42c-0.07,0.7,0.05,1.42,0.33,2.07c0.14,0.32,0.32,0.63,0.53,0.91c0.11,0.14,0.22,0.28,0.33,0.41
							c0.06,0.07,0.12,0.14,0.18,0.23c0.03,0.05,0.06,0.13,0.04,0.22c-0.02,0.08-0.07,0.13-0.1,0.17c-0.3,0.26-0.57,0.46-0.85,0.69
							c-0.16,0.11-0.22,0.23-0.5,0.34c-0.17,0.04-0.32-0.06-0.39-0.13l-0.2-0.21c-0.5-0.54-0.91-1.17-1.19-1.86
							c-0.56-1.37-0.7-2.93-0.29-4.37c0.4-1.44,1.32-2.72,2.54-3.55C48.26,30.72,49.73,30.36,51.16,30.4z M51.16,30.45
							c-1.43-0.02-2.87,0.45-3.95,1.34c-1.07,0.89-1.88,2.1-2.25,3.43c-0.34,1.33-0.26,2.78,0.24,4.08
							c0.25,0.64,0.61,1.25,1.05,1.79c0.11,0.14,0.25,0.28,0.25,0.25c0.06-0.01,0.25-0.17,0.38-0.26c0.28-0.21,0.6-0.42,0.85-0.63
							c0.05-0.07,0.05-0.03,0.03-0.09c-0.03-0.06-0.09-0.13-0.14-0.2c-0.11-0.14-0.22-0.29-0.32-0.44c-0.2-0.3-0.38-0.63-0.52-0.96
							c-0.28-0.68-0.38-1.42-0.34-2.14c0.08-1.45,0.83-2.9,2.08-3.73c1.26-0.83,2.89-0.96,4.29-0.57c0.09,0.02,0.18,0.05,0.21,0.04
							c-0.01,0.02,0.02-0.01,0.05-0.1l0.09-0.52l0.09-0.53c0.02-0.16,0.09-0.4-0.01-0.44C52.61,30.54,51.88,30.42,51.16,30.45z"/>
					</g>
					<g>
						<path class="st9" d="M51.38,33.52c0.37-0.03,0.75,0.05,1.11,0.16c0.34,0.11,0.36,0.17,0.23,0.48c-0.13,0.3-0.27,0.61-0.41,0.9
							c-0.2,0.43-0.21,0.43-0.65,0.3c-0.35-0.1-0.7-0.09-1.05,0.01c-0.58,0.17-0.87,0.61-0.97,1.15c-0.12,0.63,0,1.25,0.46,1.74
							c0.15,0.16,0.16,0.27,0,0.43c-0.28,0.26-0.54,0.54-0.82,0.81c-0.21,0.2-0.23,0.2-0.42,0.01c-0.64-0.65-1.09-1.41-1.15-2.34
							c-0.06-0.91,0.26-1.72,0.86-2.4C49.19,34.05,50.31,33.46,51.38,33.52z"/>
						<path class="st10" d="M51.38,33.5c0.39-0.03,0.79,0.05,1.18,0.14c0.09,0.03,0.21,0.03,0.3,0.17c0.06,0.16,0,0.26-0.03,0.36
							l-0.2,0.56c-0.07,0.19-0.13,0.37-0.22,0.56c-0.05,0.09-0.06,0.21-0.27,0.33c-0.22,0.07-0.31,0-0.42-0.01
							c-0.37-0.11-0.69-0.14-1.05-0.04c-0.71,0.11-1.08,0.95-0.98,1.69c0.03,0.38,0.22,0.72,0.49,1c0.07,0.07,0.15,0.23,0.07,0.36
							c-0.06,0.12-0.14,0.18-0.2,0.25l-0.4,0.43c-0.14,0.15-0.25,0.28-0.42,0.44c-0.03,0.03-0.16,0.12-0.29,0.06
							c-0.1-0.04-0.14-0.08-0.18-0.12l-0.22-0.21c-0.28-0.29-0.54-0.62-0.73-0.99c-0.39-0.74-0.49-1.65-0.24-2.46
							c0.24-0.81,0.79-1.51,1.5-1.93C49.79,33.68,50.59,33.45,51.38,33.5z M51.38,33.55c-0.79-0.03-1.54,0.31-2.12,0.8
							c-0.57,0.49-1.01,1.12-1.21,1.81c-0.19,0.7-0.14,1.46,0.17,2.13c0.16,0.33,0.36,0.65,0.61,0.94c0.11,0.14,0.32,0.33,0.22,0.26
							c0.13-0.09,0.29-0.25,0.43-0.37l0.44-0.39c0.17-0.15,0.28-0.21,0.14-0.36c-0.27-0.29-0.46-0.68-0.53-1.08
							c-0.05-0.41-0.03-0.82,0.11-1.22c0.14-0.4,0.51-0.75,0.93-0.87c0.4-0.13,0.89-0.13,1.27,0.02c0.24,0.04,0.1,0.11,0.25-0.09
							l0.28-0.51l0.28-0.52c0.04-0.08,0.08-0.18,0.07-0.21c-0.01-0.04-0.11-0.09-0.19-0.12C52.16,33.61,51.77,33.52,51.38,33.55z"/>
					</g>
				</g>
				<g>
					<g>
						<path class="st9" d="M3.12,26.81c-0.35-0.6-0.69-1.12-0.96-1.68c-0.27-0.56-0.49-1.14-0.68-1.73
							c-0.31-0.98-0.51-1.97-0.63-2.99c-0.16-1.43-0.12-2.86,0.12-4.28c0.38-2.26,1.22-4.33,2.61-6.16C4.1,9.3,4.69,8.7,5.33,8.14
							C5.54,7.96,5.59,7.96,5.72,8.2c0.23,0.42,0.52,0.8,0.67,1.27C6.42,9.58,6.5,9.68,6.56,9.78c0.65,1.14,1.31,2.28,1.96,3.42
							c0.29,0.52,0.52,1.07,0.83,1.58c0.13,0.21,0.26,0.29,0.51,0.27c0.92-0.09,1.85-0.15,2.77-0.23c0.5-0.04,1-0.07,1.5-0.12
							c0.21-0.02,0.35,0.04,0.45,0.23c0.56,0.99,1.14,1.98,1.71,2.97c0.15,0.26,0.12,0.32-0.17,0.35c-1.16,0.11-2.32,0.21-3.48,0.31
							c-0.24,0.02-0.48,0.01-0.7,0.11c-0.02,0.19,0.05,0.34,0.14,0.49c0.14,0.24,0.28,0.48,0.42,0.73c0.72,1.24,1.33,2.53,2.07,3.77
							c0.16,0.27,0.25,0.58,0.41,0.86c0.1,0.17,0.2,0.24,0.41,0.23c0.86-0.06,1.72-0.11,2.58-0.15c0.63-0.03,1.27-0.05,1.91-0.09
							c0.24-0.02,0.33,0.12,0.42,0.29c0.5,0.88,1.01,1.75,1.51,2.62c0.64,1.1,1.28,2.21,1.91,3.31c0.2,0.34,0.19,0.34-0.15,0.54
							c-0.26,0.16-0.54,0.29-0.79,0.47c-0.19,0.13-0.26,0.04-0.32-0.11c-0.11-0.3-0.21-0.6-0.32-0.89c-0.36-0.9-0.89-1.68-1.53-2.39
							c-0.82-0.9-1.78-1.59-2.91-2.02c-1.8-0.69-3.61-0.75-5.42-0.03c-1.47,0.58-2.64,1.53-3.58,2.79c-0.45,0.6-0.83,1.23-1.15,1.9
							c-0.1,0.21-0.2,0.21-0.37,0.12c-0.32-0.19-0.63-0.4-0.95-0.57c-0.15-0.08-0.13-0.17-0.1-0.29c0.09-0.37,0.22-0.74,0.38-1.09
							C7,28.01,7.79,27.1,8.72,26.3c0.16-0.14,0.19-0.22,0.05-0.41c-0.24-0.33-0.43-0.7-0.64-1.05c-0.81-1.4-1.63-2.8-2.44-4.2
							c-0.05-0.08-0.1-0.16-0.14-0.24c-0.07-0.13-0.16-0.16-0.29-0.09c-0.57,0.3-1.01,0.73-1.3,1.3c-0.48,0.92-0.39,1.87-0.09,2.82
							c0.05,0.16,0.09,0.34,0.19,0.48c0.21,0.32,0.13,0.59-0.09,0.86C3.69,26.08,3.43,26.41,3.12,26.81z"/>
						<path class="st10" d="M3.11,26.84C2.16,25.35,1.37,23.73,1,22c-0.38-1.73-0.48-3.52-0.26-5.28c0.22-1.76,0.72-3.49,1.55-5.06
							c0.42-0.79,0.91-1.53,1.48-2.22c0.29-0.34,0.59-0.67,0.91-0.98L5.17,8c0.04-0.04,0.08-0.08,0.15-0.12
							c0.03-0.02,0.07-0.05,0.13-0.07C5.51,7.79,5.63,7.8,5.69,7.85C5.9,8.01,5.89,8.1,5.95,8.19C6.16,8.56,6.43,8.94,6.57,9.4
							l0.62,1.11l1.29,2.29c0.22,0.38,0.41,0.77,0.61,1.16l0.3,0.58c0.11,0.22,0.19,0.34,0.33,0.35l2.6-0.19l1.31-0.09
							c0.23,0,0.4-0.06,0.7-0.02c0.15,0.03,0.27,0.14,0.33,0.25l0.17,0.29l1.3,2.29c0.11,0.2,0.22,0.36,0.32,0.59
							c0.02,0.04,0.05,0.19-0.06,0.27c-0.08,0.05-0.14,0.05-0.2,0.06l-0.33,0.03l-1.31,0.11c-0.86,0.09-1.78,0.1-2.59,0.26
							l0.04-0.06c-0.04,0.28,0.21,0.55,0.36,0.84l0.48,0.85l0.95,1.7l0.95,1.71c0.14,0.29,0.25,0.64,0.43,0.81
							c0.08,0.07,0.23,0.04,0.4,0.03l0.49-0.03c1.31-0.09,2.57-0.17,3.92-0.23c0.25,0.02,0.39,0.26,0.46,0.38l0.25,0.42l0.49,0.84
							l0.99,1.68l0.99,1.68l0.49,0.84l0.25,0.42c0.04,0.07,0.08,0.14,0.13,0.24c0.02,0.05,0.05,0.14,0.01,0.26
							c-0.04,0.11-0.11,0.15-0.15,0.18c-0.31,0.2-0.56,0.34-0.84,0.51l-0.23,0.14c-0.06,0.03-0.14,0.06-0.26,0.04
							c-0.12-0.03-0.19-0.12-0.23-0.17c-0.11-0.23-0.13-0.32-0.19-0.49c-0.21-0.62-0.46-1.18-0.81-1.72
							c-0.69-1.06-1.6-1.99-2.69-2.62c-1.09-0.62-2.35-0.98-3.61-1.01c-2.54-0.05-4.96,1.41-6.36,3.51
							c-0.38,0.53-0.66,1.04-0.98,1.68c-0.04,0.05-0.08,0.11-0.18,0.16c-0.1,0.05-0.21,0.04-0.28,0.02c-0.15-0.05-0.2-0.1-0.27-0.14
							l-0.41-0.25l-0.41-0.25c-0.06-0.02-0.27-0.17-0.26-0.38c0.01-0.16,0.04-0.21,0.07-0.3c0.36-1.31,1.13-2.45,2.09-3.37
							l0.36-0.34c0.11-0.1,0.29-0.24,0.31-0.28c0.03,0.08-0.06-0.11-0.15-0.24l-0.25-0.42c-0.35-0.57-0.65-1.13-0.98-1.7l-1.9-3.32
							c0.01-0.03-0.19,0.07-0.31,0.15c-0.13,0.08-0.26,0.18-0.38,0.28c-0.24,0.2-0.44,0.45-0.6,0.72c-0.32,0.54-0.45,1.18-0.39,1.81
							c0.06,0.64,0.24,1.24,0.51,1.86c0.02,0.38-0.29,0.61-0.48,0.87L3.11,26.84z M3.12,26.79l0.58-0.77
							c0.17-0.25,0.45-0.49,0.42-0.8c-0.26-0.54-0.49-1.21-0.57-1.85c-0.08-0.66,0.03-1.36,0.37-1.94c0.17-0.29,0.38-0.56,0.63-0.78
							c0.13-0.11,0.26-0.21,0.4-0.31l0.22-0.13c0.06-0.04,0.21-0.12,0.35-0.03c0.22,0.2,0.21,0.3,0.32,0.45l0.25,0.42l0.5,0.84
							l0.99,1.68c0.33,0.56,0.66,1.13,1,1.66l0.25,0.41c0.05,0.07,0.07,0.13,0.14,0.21c0.05,0.06,0.14,0.25,0.05,0.41
							c-0.16,0.23-0.27,0.26-0.39,0.39l-0.35,0.33c-0.9,0.9-1.61,1.99-1.92,3.21c-0.03,0.07-0.06,0.17-0.05,0.17
							c0-0.03-0.05-0.07,0.02-0.02l0.42,0.25l0.42,0.25c0.07,0.04,0.15,0.09,0.16,0.09c0-0.02-0.1,0.04-0.05,0
							c0.26-0.53,0.61-1.16,0.98-1.68c1.48-2.2,4.04-3.75,6.75-3.69c1.34,0.03,2.66,0.41,3.82,1.07c1.16,0.68,2.11,1.65,2.84,2.77
							c0.36,0.56,0.64,1.18,0.84,1.8c0.05,0.13,0.12,0.35,0.16,0.42c0.01,0.01,0-0.01-0.04-0.02c-0.04-0.01-0.04,0-0.02-0.01
							l0.18-0.11l0.83-0.49l-1.78-3.13l-0.96-1.7l-0.48-0.85c-0.17-0.25-0.31-0.67-0.48-0.67c-1.25,0.04-2.58,0.11-3.87,0.18
							l-0.49,0.03c-0.14,0-0.35,0.06-0.55-0.08c-0.29-0.29-0.34-0.61-0.49-0.89l-0.92-1.71l-0.93-1.71l-0.47-0.85
							c-0.13-0.28-0.4-0.54-0.37-0.93l0-0.05l0.04-0.01c0.9-0.17,1.75-0.19,2.63-0.3l1.31-0.13c0.18-0.02,0.55-0.04,0.42-0.09
							c-0.08-0.17-0.21-0.37-0.32-0.56l-1.33-2.27c-0.12-0.19-0.2-0.4-0.34-0.42c-0.14-0.02-0.41,0.02-0.61,0.03L12.36,15
							c-0.89,0.07-1.72,0.16-2.65,0.22c-0.33-0.01-0.52-0.34-0.58-0.5l-0.31-0.58c-0.21-0.39-0.4-0.78-0.63-1.16L6.86,10.7
							c-0.22-0.39-0.44-0.73-0.67-1.18C6.06,9.14,5.82,8.79,5.59,8.4C5.54,8.31,5.45,8.18,5.48,8.21c0.2,0.01,0.02,0.02-0.03,0.11
							L4.96,8.75c-0.31,0.3-0.61,0.61-0.89,0.94c-0.56,0.66-1.04,1.38-1.46,2.14c-0.83,1.52-1.34,3.21-1.58,4.93
							C0.54,20.2,1.32,23.82,3.12,26.79z"/>
					</g>
					<g>
						<path class="st9" d="M20.65,30.54c0.31,0.46,0.55,0.98,0.71,1.55c0.09,0.33,0.07,0.35-0.23,0.51c-0.39,0.2-0.79,0.37-1.2,0.51
							c-0.27,0.09-0.29,0.08-0.36-0.18c-0.13-0.58-0.38-1.1-0.7-1.59c-0.69-1.07-1.64-1.77-2.89-2.07c-0.75-0.18-1.5-0.19-2.24,0.02
							c-0.56,0.16-1.08,0.41-1.55,0.77c-0.81,0.63-1.38,1.42-1.78,2.34c-0.03,0.07-0.07,0.14-0.1,0.22
							c-0.07,0.14-0.17,0.19-0.32,0.13c-0.43-0.18-0.86-0.35-1.29-0.53c-0.2-0.08-0.22-0.24-0.16-0.43
							c0.23-0.77,0.58-1.48,1.05-2.13c0.69-0.95,1.61-1.61,2.65-2.1c1.07-0.49,2.21-0.64,3.38-0.5c1.65,0.2,3.02,0.94,4.14,2.15
							C20.13,29.6,20.39,30.05,20.65,30.54z"/>
						<path class="st10" d="M20.67,30.53c0.21,0.3,0.38,0.62,0.52,0.95c0.07,0.17,0.13,0.34,0.19,0.51
							c0.03,0.09,0.05,0.17,0.07,0.27c0.04,0.09-0.03,0.25-0.12,0.29c-0.32,0.2-0.66,0.32-0.99,0.49c-0.17,0.07-0.32,0.17-0.51,0.23
							c-0.05,0.01-0.1,0.04-0.21,0.01c-0.12-0.05-0.14-0.15-0.16-0.19l-0.08-0.27c-0.44-1.32-1.37-2.51-2.63-3.09
							c-1.25-0.61-2.81-0.66-4.05,0.08c-0.62,0.35-1.14,0.86-1.55,1.44c-0.21,0.29-0.38,0.6-0.53,0.93l-0.22,0.5
							c-0.03,0.1-0.17,0.23-0.32,0.22c-0.14-0.02-0.21-0.06-0.3-0.09l-1.01-0.39c-0.08-0.04-0.17-0.05-0.29-0.14
							C8.37,32.18,8.34,32,8.35,31.89c0.04-0.23,0.1-0.37,0.16-0.56c0.24-0.7,0.58-1.37,1.04-1.97c0.93-1.19,2.25-2.03,3.71-2.4
							c1.47-0.35,3.04-0.16,4.37,0.51c0.66,0.34,1.26,0.78,1.77,1.3C19.94,29.26,20.36,29.88,20.67,30.53z M20.63,30.55
							c-0.63-1.31-1.83-2.27-3.13-2.8c-1.31-0.52-2.77-0.63-4.12-0.32c-1.32,0.36-2.6,1.13-3.48,2.2c-0.43,0.55-0.79,1.16-1.05,1.82
							c-0.06,0.15-0.14,0.36-0.16,0.48c-0.01,0.11,0,0.11,0.21,0.2l0.99,0.44c0.21,0.08,0.24,0.14,0.31,0.01l0.24-0.49
							c0.17-0.33,0.36-0.64,0.58-0.94c0.44-0.59,0.98-1.1,1.61-1.49c0.64-0.37,1.35-0.62,2.1-0.67c0.75-0.05,1.5,0.09,2.19,0.37
							c1.41,0.59,2.41,1.92,2.76,3.37L19.73,33c0.01,0.04,0.03,0.05-0.01,0.03c-0.03,0,0.02,0,0.05-0.01
							c0.16-0.04,0.33-0.12,0.5-0.18c0.33-0.13,0.68-0.24,0.99-0.4c0.16-0.06,0.06-0.26,0.03-0.43c-0.05-0.17-0.11-0.34-0.17-0.51
							C20.99,31.18,20.83,30.86,20.63,30.55z"/>
					</g>
					<g>
						<path class="st9" d="M12.94,30.9c1.54-0.86,2.74-0.72,3.88,0.06c0.84,0.57,1.33,1.38,1.5,2.38c0.04,0.26,0.04,0.27-0.22,0.3
							c-0.38,0.04-0.76,0.07-1.15,0.11c-0.21,0.02-0.32-0.03-0.34-0.27c-0.04-0.51-0.31-0.88-0.74-1.16
							c-0.74-0.47-1.76-0.27-2.3,0.46c-0.14,0.19-0.27,0.39-0.33,0.63c-0.04,0.18-0.16,0.23-0.33,0.18
							c-0.41-0.11-0.82-0.23-1.23-0.32c-0.22-0.05-0.25-0.16-0.18-0.34C11.87,32.03,12.32,31.2,12.94,30.9z"/>
						<path class="st10" d="M12.93,30.88c0.67-0.37,1.41-0.72,2.24-0.7c0.83,0,1.6,0.41,2.19,0.96c0.6,0.57,0.91,1.37,1.03,2.14
							c0,0.11,0.06,0.17,0,0.34c-0.15,0.13-0.23,0.07-0.33,0.1l-0.58,0.07l-0.58,0.07c-0.1,0.02-0.29-0.03-0.35-0.17
							c-0.06-0.13-0.05-0.23-0.07-0.31c-0.16-0.69-0.91-1.13-1.57-1.07c-0.69,0.05-1.25,0.57-1.46,1.27
							c-0.04,0.17-0.33,0.33-0.48,0.27c-0.17-0.03-0.21-0.05-0.32-0.08c-0.19-0.05-0.37-0.1-0.55-0.16c-0.2-0.07-0.33-0.1-0.59-0.19
							c-0.06-0.03-0.15-0.09-0.2-0.2c-0.04-0.11-0.02-0.2,0-0.26c0.05-0.13,0.09-0.19,0.13-0.29C11.82,32,12.21,31.24,12.93,30.88z
							 M12.95,30.92c-0.69,0.38-0.98,1.16-1.22,1.87c-0.02,0.08-0.07,0.2-0.07,0.25c0.01,0.08-0.02-0.01,0.02,0.02l0.53,0.11
							c0.19,0.04,0.38,0.09,0.57,0.13c0.08,0.02,0.22,0.06,0.25,0.06c0.05-0.01-0.04,0.03-0.02,0.01c0.19-0.79,0.99-1.52,1.88-1.53
							c0.87-0.05,1.76,0.59,1.85,1.47c0.03,0.25-0.01,0.32,0.16,0.33c0.18,0,0.38-0.02,0.57-0.03l0.58-0.05
							c0.08,0,0.23-0.03,0.22-0.04c0.01-0.01-0.02-0.15-0.04-0.23c-0.14-0.75-0.57-1.42-1.14-1.88c-0.57-0.46-1.23-0.84-1.95-0.95
							C14.41,30.35,13.62,30.54,12.95,30.92z"/>
					</g>
				</g>
			</g>
			<ellipse class="st7" cx="14.22" cy="43.74" rx="10.76" ry="1.12"/>
			<g class="st4">
				<path class="st11" d="M28.47,32.27l-4.4,0.03c0,0,0.55,4.82,6.09,8.82c0,0,4.65,3.16,9.47,2.63l-0.88-1.57
					c0,0,0.01-0.22-0.61-0.27c0,0-3.23-0.13-3.25-3.45c0-0.12,0-0.24-0.01-0.35C34.67,34.77,31.8,32.25,28.47,32.27z"/>
				<path class="st10" d="M28.47,32.29c-1.47,0.02-2.93,0.06-4.4,0.12l0.11-0.13c0.35,1.68,1.17,3.25,2.12,4.67
					c0.97,1.42,2.17,2.7,3.52,3.79c1.37,1.06,3.01,1.77,4.66,2.29c1.67,0.49,3.41,0.72,5.12,0.51l-0.16,0.3l-0.89-1.56l-0.03-0.12
					c0.02,0.14,0.01,0.04-0.04,0.04c-0.05-0.02-0.11-0.04-0.18-0.05c-0.13-0.02-0.31-0.02-0.49-0.05c-0.35-0.05-0.68-0.14-1.01-0.27
					c-0.65-0.26-1.25-0.71-1.63-1.32c-0.38-0.61-0.53-1.33-0.54-2.02c-0.01-0.64-0.1-1.27-0.3-1.88c-0.38-1.21-1.17-2.31-2.21-3.08
					C31.1,32.71,29.78,32.31,28.47,32.29z M28.47,32.25c1.33-0.01,2.66,0.36,3.79,1.09c1.14,0.72,2.06,1.82,2.51,3.12
					c0.25,0.64,0.35,1.34,0.36,2.02c0.01,0.63,0.15,1.25,0.47,1.76c0.33,0.51,0.83,0.9,1.4,1.14c0.28,0.12,0.59,0.21,0.9,0.26
					c0.15,0.03,0.3,0.03,0.5,0.06c0.09,0.02,0.19,0.04,0.29,0.09c0.09,0.07,0.24,0.08,0.29,0.39l-0.03-0.12l0.86,1.58l0.15,0.28
					l-0.31,0.02c-1.78,0.15-3.56-0.16-5.22-0.72c-0.83-0.29-1.65-0.61-2.43-1c-0.78-0.39-1.58-0.77-2.28-1.32
					c-1.41-1.04-2.74-2.24-3.75-3.71c-1.02-1.45-1.77-3.1-2.02-4.88l-0.02-0.13l0.13,0C25.53,32.23,27,32.25,28.47,32.25z"/>
			</g>
			<g class="st4">
				<path class="st11" d="M23.84,31.02l-3.64-6.36c0,0-0.05-0.3-0.75-0.12l-4.31,0.17c0,0-6.67-1.35-9.03,5.52
					c0,0-0.16,0.21,0.42,0.47l0.72,0.43c0,0,0.22,0.13,0.32-0.23c0.1-0.36,3.69-7.7,11.04-4.16c0,0,2.83,1.26,3.85,4.88
					c0,0,0.07,0.36,0.46,0.02C22.92,31.65,23.92,31.17,23.84,31.02z"/>
				<path class="st10" d="M23.82,31.03c-1.22-2.12-2.52-4.19-3.78-6.28l-0.02-0.06c0.01,0.05,0,0-0.03,0
					c-0.03-0.01-0.08-0.02-0.13-0.02c-0.11,0-0.23,0.02-0.35,0.05l-0.02,0l-0.02,0c-1.44,0.09-2.87,0.12-4.31,0.16l-0.02,0l-0.02,0
					c-1.83-0.31-3.87-0.1-5.51,0.9c-0.82,0.48-1.54,1.15-2.08,1.94c-0.31,0.37-0.5,0.81-0.74,1.22c-0.21,0.43-0.36,0.88-0.54,1.32
					l-0.02,0.04c0.02-0.02,0,0,0.02,0.02c0.01,0.03,0.05,0.06,0.08,0.09c0.08,0.06,0.17,0.11,0.27,0.15l0.01,0l0.01,0.01l0.57,0.33
					l0.14,0.08C7.33,31,7.34,31,7.34,31c0,0.01,0.04-0.05,0.06-0.14c0.18-0.46,0.4-0.82,0.64-1.21c0.47-0.76,1.05-1.44,1.71-2.05
					c1.3-1.23,3.06-2.03,4.89-2.04c1.83-0.02,3.58,0.58,5.04,1.65c1.4,1.13,2.37,2.72,2.81,4.42l0,0c0.02,0.08,0.08,0.15,0.16,0.13
					c0.08-0.01,0.16-0.07,0.24-0.13l0,0l0,0c0.17-0.08,0.34-0.17,0.51-0.26c0.08-0.05,0.16-0.1,0.24-0.15
					C23.72,31.16,23.82,31.08,23.82,31.03z M23.86,31.01c0.01,0.15-0.11,0.18-0.18,0.24c-0.08,0.06-0.16,0.11-0.24,0.16
					c-0.17,0.1-0.33,0.19-0.51,0.27l0.01-0.01c-0.08,0.06-0.16,0.13-0.27,0.15c-0.12,0.03-0.24-0.08-0.26-0.19l0,0
					c-0.49-1.68-1.56-3.15-2.96-4.14c-0.67-0.53-1.5-0.77-2.3-1.08c-0.41-0.1-0.83-0.21-1.24-0.3c-0.42-0.02-0.84-0.11-1.27-0.08
					c-1.69,0.04-3.33,0.73-4.6,1.89c-0.64,0.57-1.2,1.22-1.69,1.93c-0.24,0.35-0.48,0.74-0.63,1.09c-0.04,0.11-0.08,0.29-0.3,0.37
					c-0.1,0.03-0.22,0-0.28-0.05L7,31.18l-0.56-0.35l0.02,0.01c-0.11-0.05-0.22-0.11-0.33-0.2c-0.05-0.05-0.11-0.1-0.15-0.18
					c-0.04-0.08-0.07-0.19,0.01-0.31l-0.02,0.04c0.2-0.45,0.37-0.91,0.59-1.34c0.26-0.42,0.46-0.86,0.79-1.23
					c0.56-0.8,1.34-1.43,2.15-1.95c0.83-0.52,1.76-0.86,2.72-1.05c0.97-0.18,1.95-0.23,2.94-0.09l-0.04,0
					c1.44-0.08,2.87-0.15,4.31-0.18l-0.04,0.01c0.14-0.03,0.29-0.06,0.46-0.05c0.08,0.01,0.17,0.02,0.27,0.06
					c0.09,0.05,0.2,0.1,0.25,0.28l-0.02-0.06C21.52,26.72,22.65,28.89,23.86,31.01z"/>
			</g>
			<path class="st12" d="M15.13,24.71c0,0-3.74-0.44-5.69-3.72s1.61-5.17-6.59-9.96c0,0-4.83,7.43,0.26,15.77l0.99-1.28
				c0,0,0.22-0.22-0.08-0.69c0,0-1.38-3.27,1.33-4.58l3.62,5.83C8.98,26.1,11.51,24.11,15.13,24.71z"/>
		</g>
	</g>
	<circle class="st9" cx="15.41" cy="9.63" r="1.19"/>
	<circle class="st9" cx="26.4" cy="27.54" r="0.57"/>
	<circle class="st9" cx="41.74" cy="25.98" r="0.7"/>
	<circle class="st9" cx="38.77" cy="2.37" r="0.7"/>
	<g>
		<path class="st9" d="M26.98,23.92l2.64,2.59c0.22,0.2,0.47,0.37,0.74,0.44c0.27,0.07,0.56,0.02,0.81-0.11
			c0.51-0.27,0.88-0.79,1.31-1.24c0.43-0.45,0.87-0.89,1.4-1.24c0.53-0.34,1.13-0.58,1.75-0.69c1.24-0.23,2.5-0.05,3.7,0.21
			c-1.22-0.17-2.47-0.27-3.66-0.02c-0.59,0.14-1.16,0.36-1.66,0.69c-0.5,0.34-0.93,0.78-1.34,1.22c-0.43,0.43-0.8,0.96-1.39,1.27
			c-0.29,0.15-0.65,0.21-0.98,0.12c-0.33-0.09-0.59-0.3-0.82-0.51C28.62,25.75,27.8,24.84,26.98,23.92z"/>
	</g>
</g>
</svg>
